<svg width="48" height="48" viewBox="0 0 48 48" fill="none" xmlns="http://www.w3.org/2000/svg">
<rect width="48" height="48" rx="24" fill="url(#paint0_linear_320_8045)"/>
<path d="M17.0002 21.8605C18.9166 26.0344 22.3266 29.3529 26.5661 31.1519L27.2457 31.4547C28.8005 32.1474 30.6283 31.6211 31.5766 30.2076L32.4647 28.8839C32.7534 28.4536 32.6655 27.8739 32.2622 27.5485L29.2503 25.1187C28.8079 24.7618 28.1574 24.8449 27.819 25.3016L26.8873 26.5589C24.4965 25.3795 22.5554 23.4385 21.3761 21.0477L22.6333 20.1159C23.09 19.7775 23.1731 19.127 22.8162 18.6846L20.3863 15.6727C20.061 15.2694 19.4815 15.1814 19.0511 15.47L17.7183 16.3637C16.2959 17.3174 15.7726 19.1602 16.4813 20.7192L16.9994 21.8588L17.0002 21.8605Z" fill="white"/>
<defs>
<linearGradient id="paint0_linear_320_8045" x1="1.42181" y1="24" x2="47.9992" y2="24.1902" gradientUnits="userSpaceOnUse">
<stop stop-color="#D231C1"/>
<stop offset="1" stop-color="#5E1ED2"/>
</linearGradient>
</defs>
</svg>
