<svg width="158" height="212" viewBox="0 0 158 212" fill="none" xmlns="http://www.w3.org/2000/svg">
<path d="M99.4323 156.716L101.04 156.545L100.169 155.183C99.8661 154.71 99.5241 154.242 99.1843 153.819C97.7316 151.909 95.9942 150.398 94.1336 149.04L93.8702 148.848H93.5441C93.501 148.848 93.4495 148.844 93.3399 148.833C93.3356 148.832 93.3312 148.832 93.3267 148.831C93.2334 148.822 93.0893 148.808 92.9376 148.808H91.0851L92.1016 150.356C93.3549 152.266 94.357 154.268 94.97 156.364L95.2037 157.164L96.0322 157.079C96.816 156.998 97.5659 156.917 98.313 156.836C98.6855 156.796 99.0573 156.756 99.4323 156.716Z" stroke="white" stroke-width="2"/>
<path d="M103.156 156.022L102.906 155.276C102.45 153.916 101.799 152.614 101.054 151.367L99.9183 149.463L102.097 149.872C103.521 150.139 104.728 150.442 105.674 150.777C106.567 151.094 107.378 151.489 107.863 152.026C107.907 152.072 107.943 152.118 107.972 152.162C109.055 153.094 110.212 154.427 111.115 155.865C112.037 157.332 112.779 159.044 112.779 160.631C112.779 166.613 108.627 171.752 102.279 175.341C95.908 178.942 87.1484 181.103 77.4502 181.103C67.752 181.103 59.0026 178.942 52.647 175.351C46.3156 171.773 42.1808 166.654 42.2021 160.709C42.2027 159.098 42.9486 157.403 43.9272 155.937C44.8962 154.485 46.1702 153.143 47.4459 152.174C47.8348 151.747 48.4389 151.439 49.0276 151.2C49.6034 150.967 50.307 150.745 51.1085 150.535C51.4943 149.571 51.9596 148.621 52.5609 147.723L52.616 147.641L52.6863 147.571C52.7057 147.552 52.7402 147.517 52.7663 147.486C52.7719 147.48 52.7744 147.476 52.7744 147.476C52.7744 147.476 52.768 147.485 52.7582 147.5C52.7507 147.512 52.7305 147.544 52.7088 147.594C52.7073 147.597 52.7058 147.601 52.7042 147.604C52.6921 147.633 52.676 147.676 52.6624 147.73C52.6584 147.745 52.6543 147.763 52.6505 147.783C52.6416 147.831 52.6342 147.89 52.6342 147.958H52.9113H53.0714H53.6342H54.6342C54.6342 148.598 54.5303 149.244 54.3925 149.853C54.4805 149.837 54.5693 149.822 54.659 149.808C54.7629 149.362 54.8859 148.92 55.0287 148.493C55.2799 147.702 55.5792 146.931 55.9705 146.19C56.1551 145.784 56.3775 145.428 56.565 145.13C56.6663 144.935 56.7664 144.786 56.8409 144.675L56.8469 144.666L56.9021 144.583L56.9461 144.54C56.9494 144.535 56.9528 144.531 56.9559 144.526C56.9586 144.522 56.9598 144.521 56.9597 144.521C56.9597 144.521 56.9565 144.525 56.9513 144.534L56.9724 144.513C56.9634 144.522 56.9559 144.53 56.95 144.537C56.9494 144.538 56.9487 144.539 56.948 144.54C56.943 144.549 56.9263 144.579 56.9082 144.624C56.9018 144.639 56.8931 144.662 56.884 144.691C56.8798 144.704 56.8755 144.719 56.8713 144.734C56.8616 144.771 56.8464 144.837 56.8412 144.922M103.156 156.022L57.4375 144.981H57.3174H56.8394C56.8394 144.96 56.8401 144.941 56.8412 144.922C56.8412 144.922 56.8412 144.922 56.8412 144.922M103.156 156.022C103.461 157.052 103.693 158.11 103.788 159.153L103.788 159.153L103.789 159.162C104.018 161.439 103.746 163.795 102.857 165.821C102.438 166.777 101.913 167.662 101.289 168.48C101.308 168.444 101.327 168.408 101.346 168.372C102.586 165.991 102.934 163.31 102.452 160.691L102.451 160.684C102.102 158.862 101.406 157.184 100.467 155.612L100.117 155.027L99.4448 155.138C98.4709 155.3 97.5206 155.457 96.5737 155.575L96.514 155.583L96.4571 155.597C96.4569 155.597 96.4564 155.597 96.4555 155.597C96.4522 155.598 96.4438 155.599 96.4288 155.601C96.4026 155.605 96.3728 155.608 96.3244 155.614L96.3093 155.615C96.2291 155.624 96.0783 155.641 95.9301 155.678L95.1077 155.882L94.8674 155.563C94.8362 155.522 94.8072 155.477 94.7539 155.392L94.7482 155.383C94.7023 155.31 94.6359 155.204 94.5538 155.094C93.2312 153.229 91.5433 151.598 89.8035 150.197L89.796 150.19L89.7883 150.185C89.0418 149.607 88.2972 149.072 87.5151 148.54L87.2788 148.379L86.9932 148.367C84.0309 148.246 80.9035 148.165 77.612 148.165C70.0778 148.165 63.1897 148.591 57.9255 149.24C58.3677 147.91 58.7508 146.51 58.8377 145.04C58.8388 145.021 58.8394 145.001 58.8394 144.981L57.3951 144.938L57.2472 144.934L56.8412 144.922M103.156 156.022L56.8412 144.922M56.9344 144.554C56.9344 144.554 56.9354 144.553 56.9374 144.551C56.9353 144.553 56.9343 144.555 56.9344 144.554ZM108.063 152.317L108.063 152.316C108.066 152.322 108.066 152.322 108.063 152.317ZM58.3651 159.378C58.9093 159.378 59.3464 159.82 59.3464 160.349C59.3464 160.878 58.9093 161.321 58.3651 161.321C57.8209 161.321 57.3838 160.878 57.3838 160.349C57.3838 159.82 57.8209 159.378 58.3651 159.378ZM51.006 158.251C51.4008 158.251 51.8946 158.5 52.3381 159.19C52.7753 159.87 53.079 160.873 53.079 162.039C53.079 163.205 52.7753 164.208 52.3381 164.888C51.8946 165.578 51.4008 165.826 51.006 165.826C50.6111 165.826 50.1174 165.578 49.6738 164.888C49.2367 164.208 48.9329 163.205 48.9329 162.039C48.9329 160.895 49.2356 159.891 49.6753 159.203C50.1231 158.502 50.6181 158.251 51.006 158.251Z" stroke="white" stroke-width="2"/>
<mask id="path-3-outside-1_309_244" maskUnits="userSpaceOnUse" x="51.3208" y="146.145" width="5" height="5" fill="black">
<rect fill="white" x="51.3208" y="146.145" width="5" height="5"/>
<path d="M53.3519 148.2C53.5132 147.998 53.2309 148.442 53.3519 148.2V148.2Z"/>
</mask>
<path d="M54.9136 149.449C54.9135 149.449 54.9048 149.46 54.8896 149.478C54.88 149.489 54.8392 149.536 54.7786 149.594C54.7498 149.622 54.6864 149.681 54.5975 149.748C54.5522 149.782 54.4797 149.833 54.3851 149.887C54.3364 149.914 54.2738 149.947 54.1989 149.98C54.125 150.012 54.0263 150.049 53.9068 150.081C53.7884 150.111 53.6282 150.142 53.437 150.145C53.2434 150.148 53.0036 150.124 52.7449 150.034C52.4794 149.942 52.2302 149.792 52.0185 149.589C51.8107 149.39 51.673 149.172 51.5839 148.977C51.4966 148.786 51.4533 148.612 51.4308 148.478C51.4081 148.344 51.4028 148.227 51.4031 148.139C51.4038 147.969 51.4264 147.833 51.4418 147.756C51.4584 147.673 51.4776 147.605 51.4916 147.56C51.5061 147.513 51.5202 147.474 51.5312 147.445C51.5527 147.388 51.5725 147.344 51.5846 147.318C51.6087 147.266 51.6293 147.228 51.6382 147.211C51.6576 147.176 51.6724 147.152 51.6797 147.141C51.6867 147.13 51.7028 147.105 51.7285 147.07C51.7399 147.054 51.7689 147.015 51.8108 146.966C51.8315 146.942 51.8696 146.899 51.9211 146.848C51.9476 146.822 51.9855 146.786 52.0332 146.745C52.0783 146.707 52.1519 146.648 52.2498 146.586C52.3001 146.554 52.3659 146.515 52.4455 146.476C52.524 146.438 52.6306 146.392 52.7615 146.354C53.0013 146.284 53.4828 146.194 54.0362 146.406C54.318 146.514 54.5652 146.681 54.7646 146.889C54.9584 147.091 55.081 147.304 55.158 147.482C55.234 147.659 55.2722 147.818 55.2925 147.937C55.3131 148.058 55.3194 148.163 55.3206 148.242C55.3229 148.396 55.3068 148.519 55.2953 148.59C55.283 148.666 55.2683 148.728 55.2573 148.77C55.236 148.853 55.2138 148.916 55.2022 148.947C55.1786 149.012 55.1576 149.058 55.1524 149.069C55.1446 149.086 55.1399 149.096 55.1408 149.094L51.563 147.305C51.5488 147.334 51.5321 147.368 51.5151 147.405C51.5006 147.437 51.4732 147.498 51.4453 147.574C51.4317 147.612 51.408 147.679 51.3857 147.765C51.3743 147.809 51.3592 147.873 51.3466 147.951C51.3349 148.023 51.3187 148.147 51.321 148.302C51.3222 148.382 51.3285 148.487 51.3492 148.608C51.3696 148.728 51.4079 148.887 51.484 149.064C51.5611 149.243 51.6839 149.456 51.8779 149.658C52.0775 149.866 52.3248 150.034 52.6069 150.142C53.1607 150.354 53.6428 150.264 53.8833 150.194C54.0145 150.155 54.1215 150.109 54.2003 150.071C54.2804 150.032 54.3465 149.993 54.3973 149.961C54.496 149.898 54.5706 149.838 54.6167 149.799C54.6655 149.758 54.7045 149.721 54.7322 149.693C54.7862 149.64 54.827 149.594 54.8508 149.566C54.8987 149.51 54.9349 149.462 54.9541 149.435C54.9953 149.379 55.0297 149.327 55.0543 149.288C55.0793 149.249 55.1111 149.197 55.1436 149.138C55.159 149.11 55.1852 149.061 55.2134 149C55.2276 148.97 55.2491 148.922 55.2719 148.861C55.2836 148.831 55.2982 148.79 55.3132 148.741C55.3277 148.694 55.3472 148.625 55.3641 148.541C55.3797 148.463 55.4024 148.326 55.4031 148.155C55.4034 148.066 55.398 147.949 55.3753 147.815C55.3528 147.681 55.3094 147.506 55.2219 147.315C55.1327 147.119 54.9949 146.901 54.7869 146.702C54.575 146.499 54.3256 146.349 54.0598 146.257C53.8009 146.166 53.5608 146.142 53.3668 146.146C53.1754 146.149 53.0148 146.179 52.8961 146.21C52.7761 146.242 52.677 146.279 52.6027 146.312C52.5273 146.345 52.4642 146.378 52.415 146.405C52.3193 146.46 52.2457 146.512 52.1989 146.547C52.1074 146.615 52.0407 146.678 52.0079 146.709C51.9393 146.775 51.8879 146.834 51.8646 146.86C51.8359 146.894 51.8104 146.925 51.7902 146.95L54.9136 149.449Z" fill="white" mask="url(#path-3-outside-1_309_244)"/>
<path d="M58.123 148.877C58.123 148.877 58.1234 148.876 58.1241 148.875C58.1234 148.876 58.123 148.877 58.123 148.877ZM60.0573 149.479C60.257 149.158 60.4251 148.864 60.5936 148.529L60.6042 148.508C60.9589 147.802 61.338 147.047 61.6372 146.284C61.968 145.502 62.2667 144.698 62.4838 143.88C62.5994 143.474 62.6884 142.998 62.7637 142.595C62.798 142.411 62.8294 142.243 62.8592 142.104C62.8608 142.096 62.8624 142.089 62.8639 142.081L60.906 141.673C60.9221 141.6 60.9451 141.547 60.9599 141.517C60.9758 141.485 60.989 141.466 60.9921 141.462C60.9927 141.461 60.993 141.461 60.993 141.461C60.9929 141.461 60.9816 141.475 60.9489 141.509C60.9227 141.537 60.902 141.557 60.8751 141.584C60.8572 141.602 60.8365 141.622 60.8097 141.649C60.7819 141.677 60.7487 141.711 60.7153 141.748C60.6826 141.783 60.6412 141.831 60.5998 141.886L60.5928 141.895L60.586 141.904C60.4754 142.058 60.3668 142.22 60.2686 142.367L60.2643 142.373C60.1614 142.527 60.0695 142.664 59.9795 142.789L59.9536 142.825L59.931 142.864C59.5037 143.586 59.1227 144.345 58.787 145.097L58.783 145.106L58.7791 145.115C58.4284 145.944 58.1712 146.802 57.962 147.635C57.8782 147.968 57.7855 148.377 57.7374 148.76L57.7296 148.822V148.869C57.7296 148.869 57.7295 148.87 57.7295 148.87C57.7278 148.886 57.7251 148.905 57.7196 148.943L57.7189 148.948C57.7143 148.98 57.7073 149.029 57.7017 149.079C57.6959 149.131 57.6892 149.204 57.6892 149.287V149.287V149.287V149.287V149.288V149.288V149.288V149.288V149.289V149.289V149.289V149.289V149.29V149.29V149.29V149.291V149.291V149.291V149.292V149.292V149.292V149.293V149.293V149.293V149.294V149.294V149.294V149.295V149.295V149.296V149.296V149.296V149.297V149.297V149.298V149.298V149.298V149.299V149.299V149.3V149.3V149.301V149.301V149.301V149.302V149.302V149.303V149.303V149.304V149.304V149.305V149.305V149.306V149.306V149.307V149.307V149.308V149.308V149.309V149.309V149.31V149.31V149.311V149.311V149.312V149.313V149.313V149.314V149.314V149.315V149.315V149.316V149.316V149.317V149.318V149.318V149.319V149.319V149.32V149.321V149.321V149.322V149.322V149.323V149.324V149.324V149.325V149.326V149.326V149.327V149.328V149.328V149.329V149.329V149.33V149.331V149.331V149.332V149.333V149.333V149.334V149.335V149.335V149.336V149.337V149.338V149.338V149.339V149.34V149.34V149.341V149.342V149.343V149.343V149.344V149.345V149.345V149.346V149.347V149.348V149.348V149.349V149.35V149.351V149.351V149.352V149.353V149.354V149.354V149.355V149.356V149.357V149.358V149.358V149.359V149.36V149.361V149.361V149.362V149.363V149.364V149.365V149.365V149.366V149.367V149.368V149.369V149.369V149.37V149.371V149.372V149.373V149.374V149.374V149.375V149.376V149.377V149.378V149.379V149.379V149.38V149.381V149.382V149.383V149.384V149.384V149.385V149.386V149.387V149.388V149.389V149.39V149.391V149.391V149.392V149.393V149.394V149.395V149.396V149.397V149.397V149.398V149.399V149.4V149.401V149.402V149.403V149.404V149.405V149.405V149.406V149.407V149.408V149.409V149.41V149.411V149.412V149.413V149.414V149.414V149.415V149.416V149.417V149.418V149.419V149.42V149.421V149.422V149.423V149.424V149.425V149.425V149.426V149.427V149.428V149.429V149.43V149.431V149.432V149.433V149.434V149.435V149.436V149.437V149.438V149.438V149.439V149.44V149.441V149.442V149.443V149.444V149.445V149.446V149.447V149.448V149.449V149.45V149.451V149.452V149.453V149.453V149.454V149.455V149.456V149.457V149.458V149.459V149.46V149.461V149.462V149.463V149.464V149.465V149.466V149.467V149.468V149.469V149.469V149.47V149.471V149.472V149.473V149.474V149.475V149.476V149.477V149.478V149.479V149.48V149.481V149.482V149.483V149.484V149.485V149.485V149.486V149.487V149.488V149.489V149.49V149.491V149.492V149.493V149.494V149.495V149.496V149.497V149.498V149.499V149.499V149.5V149.501V149.502V149.503V149.504V149.505V149.506V149.507V149.508V149.509V149.51V149.511V149.512V149.512V149.513V149.514V149.515V149.516V149.517V149.518V149.519V149.52V149.521V149.522V149.522V149.523V149.524V149.525V149.526V149.527V149.528V149.529V149.53V149.531V149.531V149.532V149.533V149.534V149.535V149.536V149.537V149.538V149.539V149.539V149.54V149.541V149.542V149.543V149.544V149.545V149.546V149.546V149.547V149.548V149.549V149.55V149.551V149.552V149.552V149.553V149.554V149.555V149.556V149.557V149.557V149.558V149.559V149.56V149.561V149.562V149.562V149.563V149.564V149.565V149.566V149.567V149.567V149.568V149.569V149.57V149.571V149.571V149.572V149.573V149.574V149.575V149.575V149.576V149.577V149.578V149.578V149.579V149.58V149.581V149.581V149.582V149.583V149.584V149.585V149.585V149.586V149.587V149.588V149.588V149.589V149.59V149.59V149.591V149.592V149.593V149.593V149.594V149.595V149.595V149.596V149.597V149.598V149.598V149.599V149.6V149.6V149.601V149.602V149.602V149.603V149.604V149.604V149.605V149.606V149.606V149.607V149.608V149.608V149.609V149.61V149.61V149.611V149.611V149.612V149.613V149.613V149.614V149.615V149.615V149.616V149.616V149.617V149.618V149.618V149.619V149.619V149.62V149.62V149.621V149.622V149.622V149.623V149.623V149.624V149.624V149.625V149.625V149.626V149.626V149.627V149.627V149.628V149.628V149.629V149.629V149.63V149.63V149.631V149.631V149.632V149.632V149.633V149.633V149.634V149.634V149.635V149.635V149.635V149.636V149.636V149.637V149.637V149.638V149.638V149.638V149.639V149.639V149.64V149.64V149.64V149.641V149.641V149.641V149.642V149.642V149.642V149.643V149.643V149.644V149.644V149.644V149.644V149.645V149.645V149.645V149.646V149.646V149.646V149.647V149.647V149.647V149.647V149.648V149.648V149.648V149.648V149.649V150.828L58.8528 150.635C59.1901 150.579 59.4238 150.398 59.5569 150.267C59.6929 150.133 59.789 149.989 59.8516 149.884C59.9257 149.759 60.023 149.554 60.0573 149.479Z" stroke="white" stroke-width="2"/>
<path d="M63.8379 146.64C63.8456 146.627 63.8496 146.621 63.8508 146.619L63.8556 146.612L63.8634 146.599C63.9554 146.453 64.0485 146.314 64.1506 146.161L64.1539 146.157C64.2517 146.011 64.3582 145.852 64.4657 145.681C64.9389 144.952 65.3225 144.189 65.6781 143.481L65.6892 143.459C66.0722 142.697 66.4097 141.898 66.703 141.107C66.8257 140.781 66.954 140.402 67.0464 140.046C67.0492 140.037 67.0515 140.03 67.0532 140.025C67.0641 139.989 67.0725 139.957 67.0783 139.933C67.0901 139.884 67.1002 139.834 67.1083 139.792C67.1226 139.718 67.1377 139.63 67.1508 139.554C67.1526 139.543 67.1543 139.533 67.156 139.524C67.1579 139.513 67.1597 139.502 67.1615 139.492L68.6742 137.987H66.2514C66.0205 137.987 65.8508 138.065 65.7867 138.097C65.7066 138.137 65.6457 138.18 65.6097 138.207C65.5371 138.261 65.4778 138.318 65.4412 138.355C65.3636 138.432 65.2859 138.521 65.2268 138.59C65.1763 138.65 65.1252 138.712 65.0848 138.761C65.0759 138.772 65.0675 138.782 65.0598 138.791C65.0231 138.835 65.0079 138.853 65.0062 138.855L64.9932 138.868L64.9681 138.897C64.6987 139.21 64.427 139.569 64.1959 139.937L64.1853 139.953C63.7513 140.62 63.2781 141.348 62.8866 142.168C62.1895 143.558 61.7606 145.02 61.5055 146.501L61.3039 147.671H62.491C62.9213 147.671 63.2111 147.431 63.3156 147.337C63.4486 147.218 63.5502 147.085 63.6157 146.992C63.6859 146.893 63.7456 146.795 63.7867 146.727C63.7972 146.709 63.8132 146.682 63.8248 146.662C63.8308 146.652 63.8355 146.644 63.8379 146.64Z" stroke="white" stroke-width="2"/>
<path d="M67.8413 143.958L67.8469 143.95C68.1033 143.649 68.3511 143.32 68.5525 143.039C69.0706 142.351 69.5366 141.59 69.9421 140.904L69.9484 140.893L69.9544 140.882L69.9612 140.87C70.356 140.163 70.7681 139.425 71.1422 138.643C71.179 138.575 71.207 138.512 71.2188 138.485C71.2199 138.482 71.2209 138.48 71.2217 138.478C71.2524 138.409 71.2881 138.325 71.3254 138.234C71.4005 138.051 71.4903 137.823 71.5746 137.597C71.6579 137.375 71.7412 137.141 71.7999 136.952C71.8278 136.863 71.8588 136.757 71.8791 136.658C71.8878 136.615 71.9052 136.525 71.9075 136.42C71.9086 136.371 71.9087 136.259 71.8727 136.123C71.8428 136.011 71.7298 135.667 71.3463 135.476L70.9462 135.277L70.5311 135.443C70.3314 135.522 70.182 135.639 70.0885 135.721C69.9903 135.808 69.9077 135.898 69.8475 135.968C69.8028 136.019 69.7552 136.077 69.7204 136.119C69.7102 136.132 69.7011 136.143 69.6934 136.152C69.6733 136.176 69.6582 136.194 69.646 136.208C69.6344 136.221 69.6293 136.226 69.6293 136.226C69.6293 136.226 69.6293 136.226 69.6293 136.226C69.3147 136.539 69.0446 136.853 68.7797 137.203C68.2159 137.895 67.7462 138.62 67.3309 139.323L67.3246 139.333L67.3186 139.344C66.9002 140.093 66.5193 140.851 66.179 141.655L66.164 141.69L66.1518 141.727C66.0943 141.898 66.0366 142.061 65.9756 142.233L65.9744 142.236C65.9144 142.405 65.8513 142.583 65.7879 142.773L65.768 142.832L65.7579 142.882C65.757 142.885 65.7512 142.905 65.735 142.952C65.7318 142.962 65.7279 142.973 65.7236 142.986C65.7043 143.043 65.6761 143.125 65.6523 143.204C65.623 143.301 65.5851 143.441 65.5668 143.595C65.5502 143.735 65.5356 143.992 65.6465 144.268L66.0182 145.193L66.9441 144.824C67.1584 144.739 67.3142 144.611 67.4137 144.514C67.5162 144.415 67.597 144.313 67.6546 144.234C67.711 144.157 67.7612 144.08 67.7948 144.028L67.7977 144.024C67.8165 143.995 67.8295 143.975 67.8413 143.958Z" stroke="white" stroke-width="2"/>
<path d="M71.841 136.833C71.3987 137.513 70.9215 138.284 70.5636 139.118C70.529 139.186 70.504 139.246 70.4942 139.269C70.4931 139.272 70.4922 139.274 70.4915 139.276C70.4618 139.347 70.4276 139.433 70.3923 139.525C70.321 139.71 70.236 139.94 70.1558 140.164C70.0759 140.387 69.998 140.611 69.9415 140.784C69.9141 140.868 69.8877 140.952 69.8685 141.021C69.8604 141.05 69.8457 141.105 69.835 141.164L69.8347 141.165C69.8309 141.186 69.8163 141.267 69.8174 141.367L69.8175 141.368C69.8179 141.406 69.8195 141.554 69.8876 141.726C69.9246 141.82 70.0031 141.978 70.1656 142.118C70.2027 142.15 70.2419 142.179 70.2828 142.205C70.6354 142.431 70.989 142.359 71.1106 142.325C71.2591 142.284 71.3675 142.218 71.4153 142.187C71.5209 142.119 71.6092 142.04 71.6633 141.989C71.7833 141.877 71.9195 141.728 72.0531 141.576C72.327 141.263 72.6683 140.842 73.0001 140.42C73.3341 139.996 73.6677 139.559 73.9289 139.21C74.1424 138.924 74.3537 138.636 74.4501 138.483C74.9459 137.742 75.4063 136.993 75.8276 136.196L75.8325 136.187L75.8372 136.177C76.008 135.838 76.1763 135.461 76.3334 135.109C76.4365 134.901 76.4965 134.727 76.5462 134.539L77.365 133.724L76.1169 133.103C75.8298 132.96 75.5667 132.994 75.4513 133.018C75.3242 133.044 75.2272 133.088 75.1757 133.114C75.0702 133.167 74.9855 133.229 74.9386 133.265C74.8357 133.344 74.7331 133.439 74.6557 133.513C74.5191 133.644 74.3073 133.865 74.3192 133.853L74.3054 133.867C74.0366 134.134 73.7366 134.433 73.4722 134.738C72.8653 135.387 72.3512 136.112 71.8815 136.774L71.8637 136.799L71.852 136.816L71.841 136.833ZM70.2809 140.543C70.2809 140.543 70.2821 140.542 70.2843 140.54C70.282 140.542 70.2809 140.543 70.2809 140.543ZM76.1551 134.853C76.1557 134.852 76.1562 134.852 76.1567 134.851C76.1601 134.849 76.1594 134.849 76.1551 134.853Z" stroke="white" stroke-width="2"/>
<path d="M81.6872 131.946V129.533L79.9803 131.239L79.9385 131.281L78.2301 132.988H80.6454L80.6461 132.988C80.6498 132.988 80.6644 132.988 80.6795 132.988C80.6949 132.987 80.7329 132.987 80.7798 132.981C80.8466 132.974 81.1382 132.941 81.3887 132.69C81.6393 132.44 81.6729 132.148 81.6804 132.081C81.6856 132.034 81.6866 131.996 81.6869 131.981C81.6872 131.965 81.6872 131.951 81.6872 131.947L81.6872 131.946ZM80.6454 131.946H80.6036H79.6872C79.6872 131.981 79.6857 131.922 79.6927 131.86L79.6928 131.859C79.6989 131.804 79.7287 131.536 79.9545 131.297C79.9612 131.29 79.9682 131.282 79.9753 131.275C79.9823 131.268 79.9893 131.262 79.9963 131.255C80.2357 131.029 80.5041 131 80.5588 130.994L80.5593 130.994C80.6217 130.987 80.6803 130.988 80.6454 130.988V131.904V131.946Z" stroke="white" stroke-width="2"/>
<path d="M79.9936 131.231C79.9907 131.233 79.9866 131.235 79.9813 131.238C79.9722 131.244 79.9633 131.249 79.9571 131.252L79.9535 131.254L79.9551 131.253L79.9532 131.254L79.9019 131.28L79.8502 131.314C79.7374 131.389 79.6371 131.473 79.576 131.525L79.5719 131.528L79.5601 131.538C79.4942 131.594 79.4501 131.631 79.4005 131.668L79.3744 131.687L79.3497 131.708C79.0712 131.946 78.7274 132.244 78.4565 132.512C77.8046 133.12 77.2461 133.804 76.7364 134.428L76.7171 134.452L76.7077 134.463L76.6987 134.475C76.1475 135.192 75.6344 135.957 75.2033 136.729L75.1927 136.748L75.1829 136.767L75.1791 136.775C75.0195 137.093 74.8492 137.431 74.6781 137.814L74.6426 137.894L74.6277 137.953C74.6247 137.961 74.6162 137.983 74.5985 138.027C74.5908 138.046 74.5793 138.073 74.5661 138.105C74.5424 138.162 74.5133 138.232 74.4915 138.287C74.4541 138.38 74.4065 138.502 74.371 138.622C74.3536 138.681 74.3311 138.765 74.3174 138.859C74.3085 138.92 74.2772 139.138 74.3599 139.385L76.3036 139.068C76.3023 139.103 76.299 139.131 76.2967 139.146C76.2931 139.171 76.2892 139.187 76.2877 139.193M79.9936 131.231C79.9872 131.235 79.9756 131.244 79.9605 131.258L79.987 131.311L81.539 132.435C81.5396 132.434 81.5399 132.434 81.5399 132.434C81.5401 132.434 81.5316 132.452 81.5141 132.498C81.4959 132.546 81.4756 132.603 81.4535 132.667C81.4472 132.685 81.4404 132.705 81.4333 132.725C81.4182 132.769 81.4022 132.815 81.3888 132.853C81.3784 132.882 81.3666 132.915 81.3545 132.946C81.3453 132.97 81.3246 133.023 81.2964 133.079L81.2867 133.099L81.276 133.118C81.2255 133.208 81.173 133.305 81.1186 133.405C80.9876 133.647 80.8454 133.909 80.6928 134.153C80.2214 134.961 79.7117 135.678 79.1741 136.377L79.1651 136.389L79.1557 136.401C78.6303 137.044 78.0448 137.752 77.4527 138.383L77.4409 138.396L77.4287 138.408L76.6675 139.165C76.6394 139.199 76.6128 139.227 76.5936 139.247C76.5534 139.288 76.5108 139.328 76.4756 139.36C76.4042 139.425 76.3182 139.499 76.2473 139.56L76.2388 139.567C76.165 139.63 76.1074 139.679 76.0667 139.716C76.0523 139.729 76.0465 139.735 76.0464 139.735C76.0464 139.735 76.0484 139.733 76.0518 139.729L76.0521 139.729C76.0558 139.725 76.0807 139.7 76.1108 139.66C76.1256 139.64 76.159 139.595 76.193 139.531C76.2105 139.498 76.2357 139.446 76.2579 139.379C76.275 139.327 76.2976 139.245 76.3054 139.141C76.2972 139.163 76.2916 139.18 76.2882 139.192C76.288 139.192 76.2878 139.193 76.2877 139.193M79.9936 131.231C79.9973 131.228 79.999 131.227 79.9989 131.227C79.9988 131.227 79.997 131.228 79.9936 131.231ZM76.2877 139.193C76.2872 139.195 76.287 139.196 76.287 139.196C76.287 139.196 76.2872 139.195 76.2877 139.193ZM79.9604 131.258C79.9639 131.265 79.9712 131.28 79.9868 131.311L79.9402 131.277C79.9474 131.27 79.9542 131.264 79.9604 131.258Z" stroke="white" stroke-width="2"/>
<path d="M79.5534 137.952L80.4451 138.396L80.7819 137.725C80.7902 137.72 80.7989 137.715 80.8077 137.709C80.8256 137.697 80.85 137.681 80.8773 137.66C80.8782 137.659 80.8791 137.659 80.88 137.658C80.9683 137.596 81.0462 137.531 81.0923 137.493C81.0958 137.49 81.0991 137.487 81.1021 137.485C81.1342 137.458 81.1548 137.441 81.1736 137.426C81.1907 137.413 81.198 137.408 81.1985 137.407L81.1985 137.407L81.2488 137.374L81.2947 137.335L81.3052 137.326C81.5822 137.09 81.8899 136.827 82.2002 136.518L82.2112 136.508C82.8105 135.911 83.4368 135.288 84.025 134.619C84.6002 133.965 85.1974 133.246 85.7172 132.471C85.7235 132.462 85.7298 132.453 85.7361 132.444C86.0852 131.942 86.5045 131.34 86.7897 130.631L87.9894 127.646L85.3091 129.424L84.5813 129.907L84.5582 129.922L84.536 129.939L84.5242 129.948C84.2075 130.184 83.8588 130.444 83.507 130.751C82.8266 131.343 82.229 131.938 81.6335 132.615C81.0514 133.277 80.4945 133.996 80.0149 134.811C80.0036 134.827 79.9963 134.838 79.9937 134.842C79.9933 134.842 79.993 134.843 79.9928 134.843C79.9709 134.876 79.9493 134.911 79.9304 134.942C79.8916 135.005 79.8462 135.084 79.7988 135.168C79.7031 135.338 79.5867 135.552 79.4759 135.765C79.3666 135.975 79.2555 136.196 79.1745 136.376C79.1363 136.461 79.0923 136.563 79.0601 136.66C79.0467 136.7 79.0171 136.792 79.0026 136.902C78.9962 136.951 78.9822 137.076 79.0104 137.229C79.0364 137.371 79.1426 137.748 79.5534 137.952Z" stroke="white" stroke-width="2"/>
<mask id="path-12-outside-2_309_244" maskUnits="userSpaceOnUse" x="0" y="0" width="158" height="212" fill="black">
<rect fill="white" width="158" height="212"/>
<path d="M155.894 196.155C155.571 194.747 154.641 193.781 153.792 193.983C153.468 194.063 153.185 194.304 152.983 194.666C152.7 195.189 152.174 195.511 151.608 195.471C149.748 195.35 147.443 195.471 145.705 195.632C144.936 194.948 143.926 194.546 142.793 194.465C141.014 194.385 139.437 195.27 138.548 196.638L115.338 200.339C114.57 199.736 113.64 199.373 112.589 199.333C110.89 199.253 109.354 200.057 108.424 201.345C107.696 200.822 106.766 200.46 105.796 200.419C103.774 200.339 101.954 201.506 101.186 203.236C90.3092 204.322 79.9175 204.805 70.3345 204.805C42.4751 204.805 21.0043 200.419 11.6234 192.212C8.55042 189.517 6.97347 186.5 6.97347 183.241C6.97347 171.413 19.1443 163.608 39.8872 154.315C38.5125 156.729 37.8251 159.223 37.8251 161.798C37.8251 168.154 42.0707 174.108 49.7533 178.494C51.6537 179.58 53.6754 180.505 55.8589 181.35L50.4002 185.373C49.4298 186.097 48.9446 187.264 49.1063 188.431C49.3085 189.678 50.1576 190.724 51.4111 191.166C57.2337 193.258 66.2911 194.345 77.5723 194.345C88.5301 194.345 97.1427 193.781 103.774 191.126C104.987 190.643 105.836 189.557 105.998 188.31C106.16 187.143 105.674 186.057 104.704 185.333L99.2453 181.31C101.429 180.465 103.45 179.54 105.351 178.453C113.033 174.068 117.279 168.114 117.279 161.757C117.279 158.619 116.228 155.562 114.166 152.665L114.125 152.625C114.085 152.545 114.004 152.464 113.963 152.384C111.74 149.286 108.788 147.194 105.715 144.981C100.741 141.401 95.687 137.74 92.897 129.693C96.7787 127.561 100.66 125.187 104.744 122.733C107.453 121.084 110.284 119.394 113.155 117.704C146.554 98.1924 150.759 80.3701 151.002 73.571C151.204 68.0191 149.182 63.3523 145.462 60.7775C137.092 54.9843 126.417 57.72 118.007 62.8696C117.764 62.8293 117.522 62.7891 117.279 62.7891C115.419 62.7891 113.923 64.2776 113.923 66.1283C113.923 66.1283 113.923 66.1283 113.923 66.1685C113.276 66.0881 111.861 65.726 111.335 66.1685L99.9327 75.5826C98.8005 75.3814 97.7088 75.5826 96.8596 76.2665C94.7975 77.9964 92.4118 81.8586 89.3388 85.9622C87.681 84.5139 85.6188 83.3874 83.314 82.6632C84.0419 81.8988 84.4866 80.8528 84.4866 79.7264V45.1679C84.4866 44.0414 84.0419 42.9954 83.314 42.231C87.8023 41.2655 90.9157 39.2137 90.9157 36.8401C90.9157 35.6331 90.107 34.5067 88.7323 33.5814H95.6466C99.4474 33.5814 102.884 32.2537 104.34 30.2422L106.928 26.6214C107.534 25.7765 106.928 24.6501 105.877 24.6501H82.3032L81.4136 21.673C83.961 20.6672 85.6592 18.6959 85.6592 16.4027C85.6592 14.5521 84.5271 12.9026 82.7075 11.8164C85.6592 10.7301 88.1257 8.43697 89.4196 5.41964L90.8753 2H64.1884L65.6441 5.41964C66.938 8.43697 69.4045 10.6899 72.3562 11.8164C70.5771 12.9026 69.4045 14.5521 69.4045 16.4027C69.4045 18.6556 71.1028 20.627 73.6097 21.6327L72.7606 24.6501H49.1872C48.1763 24.6501 47.5698 25.7765 48.1359 26.6214L50.6024 30.202C52.0176 32.2537 55.4546 33.5814 59.2959 33.5814H66.3315C64.9567 34.5067 64.148 35.6331 64.148 36.8401C64.148 39.2137 67.2615 41.2655 71.7497 42.231C71.0219 42.9954 70.5771 44.0414 70.5771 45.1679V79.7264C70.5771 80.8528 71.0219 81.8988 71.7497 82.6632C69.4449 83.3874 67.3828 84.5139 65.725 85.9622C62.4902 81.6977 60.3067 77.9964 58.2446 76.2665C56.5059 74.8182 53.5541 75.5021 51.6537 77.7551C49.7533 80.008 49.632 83.0253 51.3707 84.4736C53.4733 86.2438 57.8806 87.8128 62.4498 90.0657C61.6815 91.5945 61.2367 93.2842 61.2367 95.0544C61.2367 97.3073 61.9241 99.3994 63.0967 101.25C60.8728 102.578 59.0128 104.026 57.5572 105.233C55.6567 106.842 55.6567 109.779 57.5572 111.388C59.0937 112.676 61.075 114.164 63.4202 115.572H62.4902C61.2772 115.572 60.2663 116.578 60.2663 117.785V120.561C60.2663 121.768 61.2772 122.774 62.4902 122.774H63.7841C62.005 135.487 56.0207 140.194 49.9959 144.539C20.1147 157.171 2 166.223 2 183.241C2 187.988 4.14304 192.253 8.34824 195.914C18.6591 204.966 41.0194 209.753 70.2536 209.753C80.0388 209.753 90.6327 209.23 101.752 208.104C102.601 209.19 103.895 209.914 105.351 209.994C107.049 210.075 108.586 209.27 109.516 207.983C110.243 208.506 111.173 208.868 112.144 208.908C113.64 208.989 114.974 208.385 115.904 207.379L140.246 203.477C140.852 203.799 141.58 204.04 142.308 204.081C144.492 204.201 146.392 202.833 147.079 200.902C148.697 200.299 150.719 199.454 152.295 198.609C152.821 198.327 153.428 198.408 153.913 198.77C154.236 199.011 154.6 199.132 154.924 199.052C155.773 198.85 156.218 197.563 155.894 196.155ZM102.925 187.666C103.087 187.787 103.127 187.867 103.087 188.028C103.046 188.189 102.925 188.471 102.601 188.592C96.0509 191.247 86.6297 191.609 77.451 191.609C66.4932 191.609 57.7998 190.563 52.2602 188.592C51.9772 188.471 51.8155 188.27 51.8155 188.109C51.775 187.948 51.8559 187.827 52.0176 187.706L59.0533 182.517C59.5385 182.678 60.0237 182.798 60.4685 182.919C57.6381 185.011 54.0798 187.304 55.8993 188.27C56.9911 188.833 61.3985 189.638 66.0484 190C66.9784 190.08 67.9489 190.161 68.8789 190.241C72.4775 190.523 76.1167 190.643 79.7153 190.643C82.3436 190.643 84.9718 190.603 87.6001 190.362C86.4679 190.362 85.3357 190.362 84.2036 190.321C78.1384 190.08 72.1136 189.396 66.1293 188.39C64.3906 188.109 63.7841 185.896 65.1589 184.81C65.4419 184.568 65.7654 184.367 66.0889 184.206C67.6658 184.488 69.2832 184.689 70.941 184.85C70.2536 185.172 69.8089 185.534 69.8089 185.936C69.8089 187.143 73.4884 188.109 77.9767 188.109C82.5053 188.109 86.1445 187.143 86.1445 185.936C86.1445 185.494 85.6592 185.091 84.8505 184.77C88.7323 184.367 92.4522 183.603 95.8892 182.557L96.3744 182.919C95.3635 183.321 94.1505 183.764 92.897 184.206C89.9857 185.252 87.034 186.178 87.034 186.178C87.034 186.178 90.107 185.936 93.2205 185.574C94.757 185.413 96.334 185.172 97.5066 185.011C98.1131 184.931 98.5983 184.81 98.9218 184.77L102.925 187.666ZM137.982 59.289C140.974 59.812 144.087 61.0994 146.149 63.3523C148.292 65.6455 149.182 68.9042 149.344 71.9618C149.505 75.14 148.899 78.3183 147.807 81.2954C146.716 84.2725 145.098 87.0082 143.238 89.583C145.988 84.715 148.252 79.4448 148.373 73.8124C148.454 70.7951 147.929 67.5766 146.19 65.0018C144.532 62.4672 141.661 60.9385 138.79 60.0936C135.96 59.2488 133.008 59.1683 130.097 59.4901C132.725 58.9671 135.353 58.8062 137.982 59.289ZM116.551 64.1972C116.47 64.4386 116.47 64.68 116.47 64.8811C116.47 66.2087 117.522 67.3352 118.856 67.4157C117.966 67.818 116.915 67.5766 116.349 66.772C115.743 66.0076 115.864 64.8811 116.551 64.1972ZM104.825 81.6172L116.349 72.0825C116.915 71.5997 116.673 70.1111 116.673 69.4272C116.794 69.4272 116.875 69.4675 116.996 69.4675C116.996 69.4675 116.996 69.4675 117.036 69.4675C117.077 69.4675 117.117 69.4675 117.158 69.4675C118.613 69.4675 119.867 68.5421 120.312 67.2145C125.487 64.0363 135.03 59.6511 142.551 64.8409C144.856 66.4501 146.109 69.5479 145.947 73.4101C145.786 78.0769 142.712 94.6923 110.527 113.48C107.615 115.17 104.785 116.9 102.035 118.549C98.3961 120.762 94.9187 122.854 91.4818 124.785C91.3605 124.141 91.2392 123.458 91.1583 122.774H92.4522C93.6653 122.774 94.6762 121.768 94.6762 120.561V117.785C94.6762 116.578 93.6653 115.572 92.4522 115.572H91.5223C93.8675 114.204 95.8488 112.676 97.3853 111.388C99.2857 109.779 99.2857 106.842 97.3853 105.233C95.9296 104.026 94.0292 102.578 91.8457 101.25C93.0588 99.3994 93.7057 97.3073 93.7057 95.0544C93.7057 93.2842 93.2609 91.5945 92.4927 90.0657C97.0618 87.8128 101.469 86.2036 103.572 84.4736C104.421 83.7897 104.825 82.7437 104.825 81.6172ZM72.6393 53.1739C72.6797 54.582 72.7201 55.9901 72.7606 57.4384C72.8819 63.111 72.9223 68.7835 72.8415 74.4561C72.8415 75.1803 72.801 75.9044 72.801 76.6286C72.7606 77.3125 72.9223 77.9562 73.2054 78.5999C73.6502 79.7264 74.2162 80.8931 75.0654 81.7782C74.2162 81.0942 73.5693 80.1287 73.0841 79.2034C72.801 78.6401 72.518 78.0769 72.3562 77.4734C72.2349 77.0309 72.2754 76.5481 72.2349 76.1056C72.1136 73.2492 72.0328 70.3928 71.9519 67.5364C71.871 64.5995 71.871 61.6626 71.8306 58.7258C71.8306 55.8291 71.7497 52.8923 71.9115 49.9554C71.9923 48.4669 72.1945 46.9783 72.801 45.5702C73.2862 44.4035 74.0949 43.5184 75.0654 42.754C74.2971 43.4782 73.6501 44.3231 73.2862 45.3288C72.8414 46.4955 72.6797 47.7829 72.6393 49.0301C72.518 50.3979 72.5989 51.7658 72.6393 53.1739ZM75.8741 86.0829C77.1275 86.0829 78.1384 87.0886 78.1384 88.3358C78.1384 89.583 77.1275 90.5888 75.8741 90.5888C74.6206 90.5888 73.6097 89.583 73.6097 88.3358C73.6097 87.0886 74.6206 86.0829 75.8741 86.0829ZM84.8505 106.359C90.107 105.877 91.0775 103.463 91.0775 103.463C92.8566 104.468 96.2127 106.721 95.4848 107.928C93.7462 110.744 80.241 109.135 78.4619 108.25C76.6828 107.365 81.2923 106.721 84.8505 106.359ZM78.1788 43.1563C80.3623 44.0012 81.9392 46.3748 81.9392 49.1105V75.824C81.9392 78.5999 80.3623 80.9333 78.1788 81.7782C78.9875 80.6919 79.4727 79.2838 79.4727 77.7148V47.1795C79.4727 45.6909 78.9875 44.2828 78.1788 43.1563ZM85.2953 117.101C88.6918 117.101 91.401 117.584 91.401 118.147C91.401 118.71 88.6514 119.193 85.2953 119.193C81.8988 119.193 79.1897 118.71 79.1897 118.147C79.1897 117.544 81.9392 117.101 85.2953 117.101ZM98.9218 77.0711C98.2748 78.1976 99.0027 79.5654 99.7305 80.4505C100.62 81.5368 101.752 82.0598 103.087 82.3816C101.631 82.9851 99.9326 82.3414 98.9622 81.1747C98.1535 80.1689 97.3044 77.7953 98.9218 77.0711ZM93.4631 82.4621C94.474 81.0942 95.5657 79.6861 96.8596 78.6401C96.8596 78.6804 96.8596 78.7608 96.8596 78.801C96.2531 80.3298 95.2827 81.7781 94.3122 83.1058C93.3014 84.5139 92.1692 85.9219 90.8349 87.0082C91.4414 85.3587 92.4522 83.8702 93.4631 82.4621ZM87.9236 87.9737C90.4305 90.5083 91.3201 93.7268 89.9049 95.1349C88.4492 96.5429 85.2549 95.6579 82.7075 93.1233C80.2006 90.5888 79.311 87.3703 80.7262 85.9622C82.1819 84.5541 85.3762 85.4392 87.9236 87.9737ZM81.6562 37.1217C78.4619 37.1217 75.8741 36.3975 75.8741 35.5527C75.8741 34.7078 78.4619 33.9837 81.6562 33.9837C84.8505 33.9837 87.4383 34.7078 87.4383 35.5527C87.4383 36.3975 84.8505 37.1217 81.6562 37.1217ZM79.8366 13.2245C80.6858 12.5405 82.101 12.8221 82.9905 13.9084C83.8397 14.9946 83.8801 16.4027 82.9905 17.0866C82.1414 17.7706 80.7262 17.4889 79.8366 16.4027C78.9471 15.3567 78.9471 13.9084 79.8366 13.2245ZM67.0189 3.32762C68.1915 4.77594 69.1619 6.38517 70.5367 7.67257C71.3049 8.39673 72.1136 9.04043 73.0032 9.60366C73.7715 10.0864 74.5801 10.4485 75.3888 10.8911C71.1432 10.7301 67.868 7.31049 67.0189 3.32762ZM71.0219 17.2073C70.4963 15.1153 71.9923 13.0233 74.0141 12.5405C73.4076 13.1038 72.801 13.6268 72.4371 14.3912C72.0328 15.236 71.871 16.2016 72.0732 17.0866C72.2349 17.8108 72.5989 18.4545 73.1245 19.0177C73.6906 19.6212 74.378 20.0637 75.0249 20.5465C73.1245 20.2649 71.5071 19.0982 71.0219 17.2073ZM75.1867 24.6903L74.1354 24.6098L74.9036 21.9546L75.1867 24.6903ZM62.4093 32.2537C60.6706 32.2537 58.8915 32.3342 57.1528 32.0526C55.4141 31.771 53.7563 31.0468 52.422 29.7996C51.2494 28.6732 50.4811 27.3053 49.6724 25.8972C50.6833 26.8628 51.492 27.9892 52.5433 28.8743C53.7563 29.8801 55.212 30.564 56.7889 30.8859C58.4467 31.2077 60.145 31.1675 61.8028 31.1675C63.5819 31.2077 65.4015 31.2077 67.1806 31.248C74.3375 31.3284 81.4945 31.4089 88.6514 31.61C91.6031 31.6905 94.5548 31.771 97.5066 31.8514C91.4009 32.0124 85.2549 32.1331 79.1492 32.1733C75.3888 32.2135 71.6688 32.2135 67.9084 32.2135C66.0484 32.294 64.2289 32.2537 62.4093 32.2537ZM67.2615 39.2539C66.3719 38.6102 65.4824 37.524 65.8463 36.3573C66.1293 35.3515 67.1402 34.7481 68.1106 34.4262C67.5445 34.9894 66.8167 35.5929 66.655 36.3975C66.4528 37.4838 67.6254 38.2884 68.4341 38.7712C70.0515 39.7367 71.9115 40.2597 73.6502 40.9839C71.4667 41.0643 69.0002 40.5413 67.2615 39.2539ZM58.2041 78.8413C59.2554 80.0884 64.4715 86.4449 64.4715 86.4449L63.9863 87.0082C63.9863 87.0082 59.5789 83.5483 56.6272 80.9735C53.6755 78.3987 56.3037 76.5481 58.2041 78.8413ZM57.3146 86.5657C55.495 85.6403 53.5946 84.6346 52.0176 83.3069C54.0394 83.7897 55.9802 84.715 57.7998 85.6403C59.6193 86.5656 61.5198 87.5714 63.0967 88.899C61.1154 88.376 59.1341 87.491 57.3146 86.5657ZM63.2989 92.5601C63.9459 89.6634 66.1698 87.2093 68.7576 85.8415C70.011 85.1978 71.3049 84.7552 72.6797 84.4334C71.7093 84.9564 70.7389 85.3989 69.8089 86.0024C68.6363 86.7668 67.5849 87.6116 66.6145 88.6174C64.7141 90.629 63.7437 93.3647 63.7437 96.0602C63.7437 97.3073 63.9458 98.474 64.0671 99.681C63.5819 98.5545 63.218 97.428 63.0563 96.2211C62.935 95.0142 63.0563 93.767 63.2989 92.5601ZM59.7406 110.865C58.6893 109.9 57.8807 108.612 58.568 107.204C59.1746 105.917 60.5493 105.032 61.7624 104.348C63.0563 103.583 64.3906 102.98 65.8058 102.497C64.9567 103.101 64.0672 103.704 63.218 104.308C62.0859 105.112 60.8728 105.917 59.9833 106.963C59.5789 107.486 59.215 108.089 59.4576 108.773C59.6598 109.377 60.145 109.9 60.6302 110.302C61.6411 111.268 62.8137 112.072 63.9863 112.837C64.9971 113.52 65.9676 114.204 66.938 114.929C65.8463 114.486 64.7545 113.963 63.7032 113.4C62.288 112.716 60.8728 111.911 59.7406 110.865ZM63.6224 121.325C63.4606 121.205 63.2989 121.124 63.1371 120.963C63.0563 120.883 62.9754 120.802 62.8945 120.722C62.8137 120.641 62.7732 120.521 62.6924 120.44C62.6115 120.36 62.5711 120.239 62.4902 120.118C62.4498 119.998 62.3689 119.877 62.3285 119.756C62.288 119.636 62.2476 119.515 62.2476 119.354C62.2476 119.233 62.2072 119.072 62.2072 118.952L62.2476 118.549C62.288 118.429 62.3284 118.308 62.3689 118.147C62.4093 118.026 62.4902 117.906 62.5306 117.785L62.6115 117.624C62.6519 117.584 62.6924 117.544 62.7328 117.463C62.8137 117.383 62.8945 117.262 62.9754 117.181C63.0563 117.101 63.1371 117.021 63.2584 116.98C63.4202 116.86 63.6224 116.779 63.7841 116.699C63.9458 116.618 64.1076 116.578 64.2693 116.538C64.3906 116.498 64.5119 116.498 64.6332 116.498C64.8354 116.498 64.9567 116.498 64.9567 116.498C64.9567 116.498 64.8758 116.578 64.7141 116.699C64.6332 116.779 64.5119 116.819 64.4311 116.9C64.3502 116.98 64.2289 117.061 64.1076 117.181C64.0267 117.302 63.865 117.423 63.7841 117.544C63.7437 117.624 63.7032 117.664 63.6224 117.745C63.5819 117.825 63.5415 117.906 63.5011 117.946C63.4606 118.026 63.4202 118.107 63.3797 118.187C63.3393 118.268 63.2989 118.348 63.2989 118.429C63.2989 118.509 63.2584 118.59 63.2584 118.67C63.2584 118.75 63.2585 118.831 63.218 118.911V119.153C63.218 119.233 63.2584 119.314 63.2584 119.394C63.2584 119.475 63.2989 119.555 63.3393 119.636C63.3798 119.716 63.3798 119.796 63.4202 119.877C63.4606 119.957 63.5011 120.038 63.5415 120.118C63.5819 120.199 63.6224 120.279 63.6628 120.319C63.7437 120.48 63.865 120.601 63.9458 120.722C64.0267 120.842 64.148 120.963 64.2289 121.044C64.3098 121.164 64.3906 121.245 64.4715 121.285C64.5928 121.446 64.6737 121.526 64.6737 121.526C64.6737 121.526 64.5524 121.526 64.3502 121.486C64.2693 121.446 64.1076 121.446 63.9863 121.366C63.9458 121.486 63.7841 121.446 63.6224 121.325ZM43.1625 154.395L43.2433 154.274C43.2837 154.234 43.3242 154.154 43.3646 154.114C45.3459 151.418 48.0955 149.407 51.0068 147.315C57.4763 142.648 64.7141 137.498 66.655 122.814H68.8384C68.7576 123.498 68.6363 124.141 68.5149 124.825C67.868 127.923 66.938 131.021 65.6441 133.918C65.0376 135.285 64.3097 136.694 63.4606 137.941C62.7732 138.946 62.005 139.872 61.1558 140.757C62.4093 139.912 63.5819 138.946 64.5928 137.86C68.5149 133.596 71.3454 128.325 73.1245 122.854H88.3684C88.6918 125.429 89.2175 127.722 89.8644 129.774C89.7431 129.854 89.6218 129.935 89.5005 130.015C88.8131 130.538 88.1662 131.101 87.5597 131.745C86.9532 132.349 86.4275 132.992 85.9423 133.676C85.6997 133.998 85.4975 134.32 85.2953 134.642C85.174 134.843 85.0932 135.205 84.9314 135.366C85.0932 135.165 85.457 135.044 85.6188 134.883C85.9423 134.642 86.2658 134.4 86.5488 134.159C87.1958 133.636 87.8023 133.073 88.4088 132.469C89.0153 131.866 89.5814 131.262 90.107 130.578C93.1396 139.55 98.8005 143.613 103.976 147.355C106.887 149.447 109.637 151.418 111.618 154.154C111.659 154.234 111.699 154.274 111.78 154.355L111.82 154.395C113.519 156.769 114.408 159.303 114.408 161.838C114.408 167.148 110.688 172.218 103.895 176.08C96.8596 180.103 87.5192 182.316 77.5319 182.316C67.5445 182.316 58.2041 180.103 51.1685 176.08C44.3755 172.218 40.6555 167.148 40.6555 161.838C40.6151 159.263 41.4642 156.769 43.1625 154.395ZM38.8359 204.604C33.1751 203.799 27.5547 202.552 22.1364 200.661C19.4273 199.695 16.7991 198.569 14.2921 197.161C11.9874 195.873 9.76345 194.304 7.98433 192.373C6.12434 190.322 4.99216 187.827 4.66869 185.091C4.38564 182.316 4.9113 179.499 5.9626 176.965C7.90346 172.298 11.6234 168.396 15.9499 165.821C16.2734 165.62 16.5969 165.459 16.9204 165.258C12.9982 167.913 9.60171 171.212 7.45867 175.476C5.11347 180.183 4.50695 186.137 7.74172 190.563C9.27824 192.655 11.3808 194.264 13.5643 195.592C15.8691 197.04 18.376 198.207 20.9234 199.213C26.1799 201.264 31.679 202.672 37.2186 203.718C42.2729 204.684 47.3677 205.287 52.5028 205.73C52.8668 205.77 53.2307 205.81 53.5946 205.81C48.6616 205.65 43.7285 205.287 38.8359 204.604ZM107.656 205.81C106.928 206.333 105.796 206.012 105.068 205.046C104.34 204.081 104.34 202.914 105.068 202.351C105.796 201.828 106.928 202.149 107.656 203.115C108.383 204.081 108.383 205.287 107.656 205.81ZM114.287 204.523C113.559 205.046 112.427 204.724 111.699 203.759C110.971 202.793 110.971 201.626 111.699 201.063C112.427 200.54 113.559 200.862 114.287 201.828C115.015 202.793 115.015 204 114.287 204.523ZM130.946 200.419C127.63 201.023 124.274 201.506 120.959 201.828C119.826 201.948 118.654 202.029 117.522 202.069C119.988 201.345 122.576 200.862 125.083 200.379C128.399 199.776 131.755 199.293 135.07 198.971C136.203 198.85 137.375 198.77 138.507 198.73C136.041 199.454 133.493 199.937 130.946 200.419ZM145.017 199.816C144.289 200.339 143.157 200.017 142.429 199.052C141.702 198.086 141.702 196.919 142.429 196.356C143.157 195.833 144.289 196.155 145.017 197.121C145.745 198.086 145.745 199.253 145.017 199.816ZM149.748 197.241C148.899 197.281 147.929 197.241 147.16 196.839C147.888 196.396 148.818 196.235 149.667 196.155C150.516 196.115 151.487 196.155 152.255 196.557C151.527 197 150.597 197.161 149.748 197.241ZM154.439 196.678C154.115 196.758 153.751 196.437 153.63 195.954C153.509 195.471 153.67 195.029 153.994 194.948C154.317 194.868 154.681 195.189 154.802 195.672C154.924 196.155 154.762 196.598 154.439 196.678Z"/>
</mask>
<path d="M155.894 196.155C155.571 194.747 154.641 193.781 153.792 193.983C153.468 194.063 153.185 194.304 152.983 194.666C152.7 195.189 152.174 195.511 151.608 195.471C149.748 195.35 147.443 195.471 145.705 195.632C144.936 194.948 143.926 194.546 142.793 194.465C141.014 194.385 139.437 195.27 138.548 196.638L115.338 200.339C114.57 199.736 113.64 199.373 112.589 199.333C110.89 199.253 109.354 200.057 108.424 201.345C107.696 200.822 106.766 200.46 105.796 200.419C103.774 200.339 101.954 201.506 101.186 203.236C90.3092 204.322 79.9175 204.805 70.3345 204.805C42.4751 204.805 21.0043 200.419 11.6234 192.212C8.55042 189.517 6.97347 186.5 6.97347 183.241C6.97347 171.413 19.1443 163.608 39.8872 154.315C38.5125 156.729 37.8251 159.223 37.8251 161.798C37.8251 168.154 42.0707 174.108 49.7533 178.494C51.6537 179.58 53.6754 180.505 55.8589 181.35L50.4002 185.373C49.4298 186.097 48.9446 187.264 49.1063 188.431C49.3085 189.678 50.1576 190.724 51.4111 191.166C57.2337 193.258 66.2911 194.345 77.5723 194.345C88.5301 194.345 97.1427 193.781 103.774 191.126C104.987 190.643 105.836 189.557 105.998 188.31C106.16 187.143 105.674 186.057 104.704 185.333L99.2453 181.31C101.429 180.465 103.45 179.54 105.351 178.453C113.033 174.068 117.279 168.114 117.279 161.757C117.279 158.619 116.228 155.562 114.166 152.665L114.125 152.625C114.085 152.545 114.004 152.464 113.963 152.384C111.74 149.286 108.788 147.194 105.715 144.981C100.741 141.401 95.687 137.74 92.897 129.693C96.7787 127.561 100.66 125.187 104.744 122.733C107.453 121.084 110.284 119.394 113.155 117.704C146.554 98.1924 150.759 80.3701 151.002 73.571C151.204 68.0191 149.182 63.3523 145.462 60.7775C137.092 54.9843 126.417 57.72 118.007 62.8696C117.764 62.8293 117.522 62.7891 117.279 62.7891C115.419 62.7891 113.923 64.2776 113.923 66.1283C113.923 66.1283 113.923 66.1283 113.923 66.1685C113.276 66.0881 111.861 65.726 111.335 66.1685L99.9327 75.5826C98.8005 75.3814 97.7088 75.5826 96.8596 76.2665C94.7975 77.9964 92.4118 81.8586 89.3388 85.9622C87.681 84.5139 85.6188 83.3874 83.314 82.6632C84.0419 81.8988 84.4866 80.8528 84.4866 79.7264V45.1679C84.4866 44.0414 84.0419 42.9954 83.314 42.231C87.8023 41.2655 90.9157 39.2137 90.9157 36.8401C90.9157 35.6331 90.107 34.5067 88.7323 33.5814H95.6466C99.4474 33.5814 102.884 32.2537 104.34 30.2422L106.928 26.6214C107.534 25.7765 106.928 24.6501 105.877 24.6501H82.3032L81.4136 21.673C83.961 20.6672 85.6592 18.6959 85.6592 16.4027C85.6592 14.5521 84.5271 12.9026 82.7075 11.8164C85.6592 10.7301 88.1257 8.43697 89.4196 5.41964L90.8753 2H64.1884L65.6441 5.41964C66.938 8.43697 69.4045 10.6899 72.3562 11.8164C70.5771 12.9026 69.4045 14.5521 69.4045 16.4027C69.4045 18.6556 71.1028 20.627 73.6097 21.6327L72.7606 24.6501H49.1872C48.1763 24.6501 47.5698 25.7765 48.1359 26.6214L50.6024 30.202C52.0176 32.2537 55.4546 33.5814 59.2959 33.5814H66.3315C64.9567 34.5067 64.148 35.6331 64.148 36.8401C64.148 39.2137 67.2615 41.2655 71.7497 42.231C71.0219 42.9954 70.5771 44.0414 70.5771 45.1679V79.7264C70.5771 80.8528 71.0219 81.8988 71.7497 82.6632C69.4449 83.3874 67.3828 84.5139 65.725 85.9622C62.4902 81.6977 60.3067 77.9964 58.2446 76.2665C56.5059 74.8182 53.5541 75.5021 51.6537 77.7551C49.7533 80.008 49.632 83.0253 51.3707 84.4736C53.4733 86.2438 57.8806 87.8128 62.4498 90.0657C61.6815 91.5945 61.2367 93.2842 61.2367 95.0544C61.2367 97.3073 61.9241 99.3994 63.0967 101.25C60.8728 102.578 59.0128 104.026 57.5572 105.233C55.6567 106.842 55.6567 109.779 57.5572 111.388C59.0937 112.676 61.075 114.164 63.4202 115.572H62.4902C61.2772 115.572 60.2663 116.578 60.2663 117.785V120.561C60.2663 121.768 61.2772 122.774 62.4902 122.774H63.7841C62.005 135.487 56.0207 140.194 49.9959 144.539C20.1147 157.171 2 166.223 2 183.241C2 187.988 4.14304 192.253 8.34824 195.914C18.6591 204.966 41.0194 209.753 70.2536 209.753C80.0388 209.753 90.6327 209.23 101.752 208.104C102.601 209.19 103.895 209.914 105.351 209.994C107.049 210.075 108.586 209.27 109.516 207.983C110.243 208.506 111.173 208.868 112.144 208.908C113.64 208.989 114.974 208.385 115.904 207.379L140.246 203.477C140.852 203.799 141.58 204.04 142.308 204.081C144.492 204.201 146.392 202.833 147.079 200.902C148.697 200.299 150.719 199.454 152.295 198.609C152.821 198.327 153.428 198.408 153.913 198.77C154.236 199.011 154.6 199.132 154.924 199.052C155.773 198.85 156.218 197.563 155.894 196.155ZM102.925 187.666C103.087 187.787 103.127 187.867 103.087 188.028C103.046 188.189 102.925 188.471 102.601 188.592C96.0509 191.247 86.6297 191.609 77.451 191.609C66.4932 191.609 57.7998 190.563 52.2602 188.592C51.9772 188.471 51.8155 188.27 51.8155 188.109C51.775 187.948 51.8559 187.827 52.0176 187.706L59.0533 182.517C59.5385 182.678 60.0237 182.798 60.4685 182.919C57.6381 185.011 54.0798 187.304 55.8993 188.27C56.9911 188.833 61.3985 189.638 66.0484 190C66.9784 190.08 67.9489 190.161 68.8789 190.241C72.4775 190.523 76.1167 190.643 79.7153 190.643C82.3436 190.643 84.9718 190.603 87.6001 190.362C86.4679 190.362 85.3357 190.362 84.2036 190.321C78.1384 190.08 72.1136 189.396 66.1293 188.39C64.3906 188.109 63.7841 185.896 65.1589 184.81C65.4419 184.568 65.7654 184.367 66.0889 184.206C67.6658 184.488 69.2832 184.689 70.941 184.85C70.2536 185.172 69.8089 185.534 69.8089 185.936C69.8089 187.143 73.4884 188.109 77.9767 188.109C82.5053 188.109 86.1445 187.143 86.1445 185.936C86.1445 185.494 85.6592 185.091 84.8505 184.77C88.7323 184.367 92.4522 183.603 95.8892 182.557L96.3744 182.919C95.3635 183.321 94.1505 183.764 92.897 184.206C89.9857 185.252 87.034 186.178 87.034 186.178C87.034 186.178 90.107 185.936 93.2205 185.574C94.757 185.413 96.334 185.172 97.5066 185.011C98.1131 184.931 98.5983 184.81 98.9218 184.77L102.925 187.666ZM137.982 59.289C140.974 59.812 144.087 61.0994 146.149 63.3523C148.292 65.6455 149.182 68.9042 149.344 71.9618C149.505 75.14 148.899 78.3183 147.807 81.2954C146.716 84.2725 145.098 87.0082 143.238 89.583C145.988 84.715 148.252 79.4448 148.373 73.8124C148.454 70.7951 147.929 67.5766 146.19 65.0018C144.532 62.4672 141.661 60.9385 138.79 60.0936C135.96 59.2488 133.008 59.1683 130.097 59.4901C132.725 58.9671 135.353 58.8062 137.982 59.289ZM116.551 64.1972C116.47 64.4386 116.47 64.68 116.47 64.8811C116.47 66.2087 117.522 67.3352 118.856 67.4157C117.966 67.818 116.915 67.5766 116.349 66.772C115.743 66.0076 115.864 64.8811 116.551 64.1972ZM104.825 81.6172L116.349 72.0825C116.915 71.5997 116.673 70.1111 116.673 69.4272C116.794 69.4272 116.875 69.4675 116.996 69.4675C116.996 69.4675 116.996 69.4675 117.036 69.4675C117.077 69.4675 117.117 69.4675 117.158 69.4675C118.613 69.4675 119.867 68.5421 120.312 67.2145C125.487 64.0363 135.03 59.6511 142.551 64.8409C144.856 66.4501 146.109 69.5479 145.947 73.4101C145.786 78.0769 142.712 94.6923 110.527 113.48C107.615 115.17 104.785 116.9 102.035 118.549C98.3961 120.762 94.9187 122.854 91.4818 124.785C91.3605 124.141 91.2392 123.458 91.1583 122.774H92.4522C93.6653 122.774 94.6762 121.768 94.6762 120.561V117.785C94.6762 116.578 93.6653 115.572 92.4522 115.572H91.5223C93.8675 114.204 95.8488 112.676 97.3853 111.388C99.2857 109.779 99.2857 106.842 97.3853 105.233C95.9296 104.026 94.0292 102.578 91.8457 101.25C93.0588 99.3994 93.7057 97.3073 93.7057 95.0544C93.7057 93.2842 93.2609 91.5945 92.4927 90.0657C97.0618 87.8128 101.469 86.2036 103.572 84.4736C104.421 83.7897 104.825 82.7437 104.825 81.6172ZM72.6393 53.1739C72.6797 54.582 72.7201 55.9901 72.7606 57.4384C72.8819 63.111 72.9223 68.7835 72.8415 74.4561C72.8415 75.1803 72.801 75.9044 72.801 76.6286C72.7606 77.3125 72.9223 77.9562 73.2054 78.5999C73.6502 79.7264 74.2162 80.8931 75.0654 81.7782C74.2162 81.0942 73.5693 80.1287 73.0841 79.2034C72.801 78.6401 72.518 78.0769 72.3562 77.4734C72.2349 77.0309 72.2754 76.5481 72.2349 76.1056C72.1136 73.2492 72.0328 70.3928 71.9519 67.5364C71.871 64.5995 71.871 61.6626 71.8306 58.7258C71.8306 55.8291 71.7497 52.8923 71.9115 49.9554C71.9923 48.4669 72.1945 46.9783 72.801 45.5702C73.2862 44.4035 74.0949 43.5184 75.0654 42.754C74.2971 43.4782 73.6501 44.3231 73.2862 45.3288C72.8414 46.4955 72.6797 47.7829 72.6393 49.0301C72.518 50.3979 72.5989 51.7658 72.6393 53.1739ZM75.8741 86.0829C77.1275 86.0829 78.1384 87.0886 78.1384 88.3358C78.1384 89.583 77.1275 90.5888 75.8741 90.5888C74.6206 90.5888 73.6097 89.583 73.6097 88.3358C73.6097 87.0886 74.6206 86.0829 75.8741 86.0829ZM84.8505 106.359C90.107 105.877 91.0775 103.463 91.0775 103.463C92.8566 104.468 96.2127 106.721 95.4848 107.928C93.7462 110.744 80.241 109.135 78.4619 108.25C76.6828 107.365 81.2923 106.721 84.8505 106.359ZM78.1788 43.1563C80.3623 44.0012 81.9392 46.3748 81.9392 49.1105V75.824C81.9392 78.5999 80.3623 80.9333 78.1788 81.7782C78.9875 80.6919 79.4727 79.2838 79.4727 77.7148V47.1795C79.4727 45.6909 78.9875 44.2828 78.1788 43.1563ZM85.2953 117.101C88.6918 117.101 91.401 117.584 91.401 118.147C91.401 118.71 88.6514 119.193 85.2953 119.193C81.8988 119.193 79.1897 118.71 79.1897 118.147C79.1897 117.544 81.9392 117.101 85.2953 117.101ZM98.9218 77.0711C98.2748 78.1976 99.0027 79.5654 99.7305 80.4505C100.62 81.5368 101.752 82.0598 103.087 82.3816C101.631 82.9851 99.9326 82.3414 98.9622 81.1747C98.1535 80.1689 97.3044 77.7953 98.9218 77.0711ZM93.4631 82.4621C94.474 81.0942 95.5657 79.6861 96.8596 78.6401C96.8596 78.6804 96.8596 78.7608 96.8596 78.801C96.2531 80.3298 95.2827 81.7781 94.3122 83.1058C93.3014 84.5139 92.1692 85.9219 90.8349 87.0082C91.4414 85.3587 92.4522 83.8702 93.4631 82.4621ZM87.9236 87.9737C90.4305 90.5083 91.3201 93.7268 89.9049 95.1349C88.4492 96.5429 85.2549 95.6579 82.7075 93.1233C80.2006 90.5888 79.311 87.3703 80.7262 85.9622C82.1819 84.5541 85.3762 85.4392 87.9236 87.9737ZM81.6562 37.1217C78.4619 37.1217 75.8741 36.3975 75.8741 35.5527C75.8741 34.7078 78.4619 33.9837 81.6562 33.9837C84.8505 33.9837 87.4383 34.7078 87.4383 35.5527C87.4383 36.3975 84.8505 37.1217 81.6562 37.1217ZM79.8366 13.2245C80.6858 12.5405 82.101 12.8221 82.9905 13.9084C83.8397 14.9946 83.8801 16.4027 82.9905 17.0866C82.1414 17.7706 80.7262 17.4889 79.8366 16.4027C78.9471 15.3567 78.9471 13.9084 79.8366 13.2245ZM67.0189 3.32762C68.1915 4.77594 69.1619 6.38517 70.5367 7.67257C71.3049 8.39673 72.1136 9.04043 73.0032 9.60366C73.7715 10.0864 74.5801 10.4485 75.3888 10.8911C71.1432 10.7301 67.868 7.31049 67.0189 3.32762ZM71.0219 17.2073C70.4963 15.1153 71.9923 13.0233 74.0141 12.5405C73.4076 13.1038 72.801 13.6268 72.4371 14.3912C72.0328 15.236 71.871 16.2016 72.0732 17.0866C72.2349 17.8108 72.5989 18.4545 73.1245 19.0177C73.6906 19.6212 74.378 20.0637 75.0249 20.5465C73.1245 20.2649 71.5071 19.0982 71.0219 17.2073ZM75.1867 24.6903L74.1354 24.6098L74.9036 21.9546L75.1867 24.6903ZM62.4093 32.2537C60.6706 32.2537 58.8915 32.3342 57.1528 32.0526C55.4141 31.771 53.7563 31.0468 52.422 29.7996C51.2494 28.6732 50.4811 27.3053 49.6724 25.8972C50.6833 26.8628 51.492 27.9892 52.5433 28.8743C53.7563 29.8801 55.212 30.564 56.7889 30.8859C58.4467 31.2077 60.145 31.1675 61.8028 31.1675C63.5819 31.2077 65.4015 31.2077 67.1806 31.248C74.3375 31.3284 81.4945 31.4089 88.6514 31.61C91.6031 31.6905 94.5548 31.771 97.5066 31.8514C91.4009 32.0124 85.2549 32.1331 79.1492 32.1733C75.3888 32.2135 71.6688 32.2135 67.9084 32.2135C66.0484 32.294 64.2289 32.2537 62.4093 32.2537ZM67.2615 39.2539C66.3719 38.6102 65.4824 37.524 65.8463 36.3573C66.1293 35.3515 67.1402 34.7481 68.1106 34.4262C67.5445 34.9894 66.8167 35.5929 66.655 36.3975C66.4528 37.4838 67.6254 38.2884 68.4341 38.7712C70.0515 39.7367 71.9115 40.2597 73.6502 40.9839C71.4667 41.0643 69.0002 40.5413 67.2615 39.2539ZM58.2041 78.8413C59.2554 80.0884 64.4715 86.4449 64.4715 86.4449L63.9863 87.0082C63.9863 87.0082 59.5789 83.5483 56.6272 80.9735C53.6755 78.3987 56.3037 76.5481 58.2041 78.8413ZM57.3146 86.5657C55.495 85.6403 53.5946 84.6346 52.0176 83.3069C54.0394 83.7897 55.9802 84.715 57.7998 85.6403C59.6193 86.5656 61.5198 87.5714 63.0967 88.899C61.1154 88.376 59.1341 87.491 57.3146 86.5657ZM63.2989 92.5601C63.9459 89.6634 66.1698 87.2093 68.7576 85.8415C70.011 85.1978 71.3049 84.7552 72.6797 84.4334C71.7093 84.9564 70.7389 85.3989 69.8089 86.0024C68.6363 86.7668 67.5849 87.6116 66.6145 88.6174C64.7141 90.629 63.7437 93.3647 63.7437 96.0602C63.7437 97.3073 63.9458 98.474 64.0671 99.681C63.5819 98.5545 63.218 97.428 63.0563 96.2211C62.935 95.0142 63.0563 93.767 63.2989 92.5601ZM59.7406 110.865C58.6893 109.9 57.8807 108.612 58.568 107.204C59.1746 105.917 60.5493 105.032 61.7624 104.348C63.0563 103.583 64.3906 102.98 65.8058 102.497C64.9567 103.101 64.0672 103.704 63.218 104.308C62.0859 105.112 60.8728 105.917 59.9833 106.963C59.5789 107.486 59.215 108.089 59.4576 108.773C59.6598 109.377 60.145 109.9 60.6302 110.302C61.6411 111.268 62.8137 112.072 63.9863 112.837C64.9971 113.52 65.9676 114.204 66.938 114.929C65.8463 114.486 64.7545 113.963 63.7032 113.4C62.288 112.716 60.8728 111.911 59.7406 110.865ZM63.6224 121.325C63.4606 121.205 63.2989 121.124 63.1371 120.963C63.0563 120.883 62.9754 120.802 62.8945 120.722C62.8137 120.641 62.7732 120.521 62.6924 120.44C62.6115 120.36 62.5711 120.239 62.4902 120.118C62.4498 119.998 62.3689 119.877 62.3285 119.756C62.288 119.636 62.2476 119.515 62.2476 119.354C62.2476 119.233 62.2072 119.072 62.2072 118.952L62.2476 118.549C62.288 118.429 62.3284 118.308 62.3689 118.147C62.4093 118.026 62.4902 117.906 62.5306 117.785L62.6115 117.624C62.6519 117.584 62.6924 117.544 62.7328 117.463C62.8137 117.383 62.8945 117.262 62.9754 117.181C63.0563 117.101 63.1371 117.021 63.2584 116.98C63.4202 116.86 63.6224 116.779 63.7841 116.699C63.9458 116.618 64.1076 116.578 64.2693 116.538C64.3906 116.498 64.5119 116.498 64.6332 116.498C64.8354 116.498 64.9567 116.498 64.9567 116.498C64.9567 116.498 64.8758 116.578 64.7141 116.699C64.6332 116.779 64.5119 116.819 64.4311 116.9C64.3502 116.98 64.2289 117.061 64.1076 117.181C64.0267 117.302 63.865 117.423 63.7841 117.544C63.7437 117.624 63.7032 117.664 63.6224 117.745C63.5819 117.825 63.5415 117.906 63.5011 117.946C63.4606 118.026 63.4202 118.107 63.3797 118.187C63.3393 118.268 63.2989 118.348 63.2989 118.429C63.2989 118.509 63.2584 118.59 63.2584 118.67C63.2584 118.75 63.2585 118.831 63.218 118.911V119.153C63.218 119.233 63.2584 119.314 63.2584 119.394C63.2584 119.475 63.2989 119.555 63.3393 119.636C63.3798 119.716 63.3798 119.796 63.4202 119.877C63.4606 119.957 63.5011 120.038 63.5415 120.118C63.5819 120.199 63.6224 120.279 63.6628 120.319C63.7437 120.48 63.865 120.601 63.9458 120.722C64.0267 120.842 64.148 120.963 64.2289 121.044C64.3098 121.164 64.3906 121.245 64.4715 121.285C64.5928 121.446 64.6737 121.526 64.6737 121.526C64.6737 121.526 64.5524 121.526 64.3502 121.486C64.2693 121.446 64.1076 121.446 63.9863 121.366C63.9458 121.486 63.7841 121.446 63.6224 121.325ZM43.1625 154.395L43.2433 154.274C43.2837 154.234 43.3242 154.154 43.3646 154.114C45.3459 151.418 48.0955 149.407 51.0068 147.315C57.4763 142.648 64.7141 137.498 66.655 122.814H68.8384C68.7576 123.498 68.6363 124.141 68.5149 124.825C67.868 127.923 66.938 131.021 65.6441 133.918C65.0376 135.285 64.3097 136.694 63.4606 137.941C62.7732 138.946 62.005 139.872 61.1558 140.757C62.4093 139.912 63.5819 138.946 64.5928 137.86C68.5149 133.596 71.3454 128.325 73.1245 122.854H88.3684C88.6918 125.429 89.2175 127.722 89.8644 129.774C89.7431 129.854 89.6218 129.935 89.5005 130.015C88.8131 130.538 88.1662 131.101 87.5597 131.745C86.9532 132.349 86.4275 132.992 85.9423 133.676C85.6997 133.998 85.4975 134.32 85.2953 134.642C85.174 134.843 85.0932 135.205 84.9314 135.366C85.0932 135.165 85.457 135.044 85.6188 134.883C85.9423 134.642 86.2658 134.4 86.5488 134.159C87.1958 133.636 87.8023 133.073 88.4088 132.469C89.0153 131.866 89.5814 131.262 90.107 130.578C93.1396 139.55 98.8005 143.613 103.976 147.355C106.887 149.447 109.637 151.418 111.618 154.154C111.659 154.234 111.699 154.274 111.78 154.355L111.82 154.395C113.519 156.769 114.408 159.303 114.408 161.838C114.408 167.148 110.688 172.218 103.895 176.08C96.8596 180.103 87.5192 182.316 77.5319 182.316C67.5445 182.316 58.2041 180.103 51.1685 176.08C44.3755 172.218 40.6555 167.148 40.6555 161.838C40.6151 159.263 41.4642 156.769 43.1625 154.395ZM38.8359 204.604C33.1751 203.799 27.5547 202.552 22.1364 200.661C19.4273 199.695 16.7991 198.569 14.2921 197.161C11.9874 195.873 9.76345 194.304 7.98433 192.373C6.12434 190.322 4.99216 187.827 4.66869 185.091C4.38564 182.316 4.9113 179.499 5.9626 176.965C7.90346 172.298 11.6234 168.396 15.9499 165.821C16.2734 165.62 16.5969 165.459 16.9204 165.258C12.9982 167.913 9.60171 171.212 7.45867 175.476C5.11347 180.183 4.50695 186.137 7.74172 190.563C9.27824 192.655 11.3808 194.264 13.5643 195.592C15.8691 197.04 18.376 198.207 20.9234 199.213C26.1799 201.264 31.679 202.672 37.2186 203.718C42.2729 204.684 47.3677 205.287 52.5028 205.73C52.8668 205.77 53.2307 205.81 53.5946 205.81C48.6616 205.65 43.7285 205.287 38.8359 204.604ZM107.656 205.81C106.928 206.333 105.796 206.012 105.068 205.046C104.34 204.081 104.34 202.914 105.068 202.351C105.796 201.828 106.928 202.149 107.656 203.115C108.383 204.081 108.383 205.287 107.656 205.81ZM114.287 204.523C113.559 205.046 112.427 204.724 111.699 203.759C110.971 202.793 110.971 201.626 111.699 201.063C112.427 200.54 113.559 200.862 114.287 201.828C115.015 202.793 115.015 204 114.287 204.523ZM130.946 200.419C127.63 201.023 124.274 201.506 120.959 201.828C119.826 201.948 118.654 202.029 117.522 202.069C119.988 201.345 122.576 200.862 125.083 200.379C128.399 199.776 131.755 199.293 135.07 198.971C136.203 198.85 137.375 198.77 138.507 198.73C136.041 199.454 133.493 199.937 130.946 200.419ZM145.017 199.816C144.289 200.339 143.157 200.017 142.429 199.052C141.702 198.086 141.702 196.919 142.429 196.356C143.157 195.833 144.289 196.155 145.017 197.121C145.745 198.086 145.745 199.253 145.017 199.816ZM149.748 197.241C148.899 197.281 147.929 197.241 147.16 196.839C147.888 196.396 148.818 196.235 149.667 196.155C150.516 196.115 151.487 196.155 152.255 196.557C151.527 197 150.597 197.161 149.748 197.241ZM154.439 196.678C154.115 196.758 153.751 196.437 153.63 195.954C153.509 195.471 153.67 195.029 153.994 194.948C154.317 194.868 154.681 195.189 154.802 195.672C154.924 196.155 154.762 196.598 154.439 196.678Z" stroke="white" stroke-width="3.4" mask="url(#path-12-outside-2_309_244)"/>
</svg>
