<svg width="184" height="80" viewBox="0 0 184 88" fill="none" xmlns="http://www.w3.org/2000/svg">
<path d="M29.2003 36.6588L24.1596 39.3064C23.3779 39.6965 22.8545 39.8918 22.589 39.8918C22.104 39.8918 21.7526 39.7435 21.5336 39.447C21.2993 39.1346 21.1821 38.6582 21.1821 38.0176C21.1821 37.2835 21.3382 36.44 21.6508 35.4875C21.9633 34.5188 22.323 33.8081 22.7297 33.3552C23.1513 32.8869 24.1361 32.2463 25.6836 31.4342C27.2466 30.6064 29.1221 29.7786 31.3106 28.9508C33.4987 28.123 35.7809 27.4357 38.1563 26.889C40.5321 26.3424 42.7049 26.069 44.6745 26.069C46.0497 26.069 47.0657 26.2877 47.7221 26.725C48.3789 27.1624 48.7069 28.3182 48.7069 30.1925C48.7069 31.2077 48.3554 32.3399 47.6519 33.5898C46.9644 34.8234 46.1279 36.0264 45.1431 37.1976C44.1741 38.3693 42.3687 40.4465 39.7274 43.4295C41.1342 43.2112 42.1656 43.0706 42.822 43.0082C43.4784 42.9454 44.7057 42.8129 46.5029 42.6095C48.582 39.6106 50.2621 37.2211 51.5437 35.4405C52.8257 33.6445 53.9118 32.1604 54.8025 30.9891C55.6937 29.802 56.2252 29.1226 56.3971 28.9508C56.7097 28.5915 56.9675 28.4588 57.1707 28.5525C57.3896 28.6306 57.4991 28.9508 57.4991 29.513C57.4991 30.1535 57.4285 30.6767 57.2878 31.0828C57.163 31.4889 56.9599 31.895 56.6785 32.301C56.3971 32.6916 56.2483 32.9022 56.2329 32.9334C55.8267 33.6052 55.2404 34.4876 54.4745 35.5811C53.7087 36.6588 52.9582 37.7288 52.2236 38.7906C51.4889 39.8529 50.653 41.1101 49.7152 42.5629C51.4659 42.6253 53.193 42.8518 54.8966 43.2424L50.6765 48.959C49.5198 48.8025 47.9799 48.7248 46.0578 48.7248C45.5887 49.6619 45.2214 50.396 44.9558 50.9267C44.7057 51.4579 44.4867 51.9655 44.299 52.4496C44.1271 52.9184 44.0411 53.3555 44.0411 53.7619C44.0411 54.0115 44.1117 54.3473 44.2524 54.7691C44.4085 55.1755 44.4867 55.4096 44.4867 55.472C44.4867 55.7844 44.2524 56.1203 43.7833 56.4797C43.33 56.8232 42.7908 57.1279 42.1656 57.3932C41.5563 57.6586 41.0795 57.7915 40.7357 57.7915C40.1571 57.7915 39.8681 57.3544 39.8681 56.4797C39.8681 54.6678 40.7981 52.1454 42.6578 48.9119C40.1883 49.1149 37.3515 49.482 34.1474 50.0131C33.225 51.2314 32.3891 52.3873 31.6386 53.4808C30.8886 54.5738 30.2711 55.4955 29.7866 56.245C29.3175 56.995 28.966 57.495 28.7317 57.7445C28.5127 57.9944 28.2703 58.1197 28.0047 58.1197C27.5515 58.1197 27.1683 57.9244 26.8557 57.5338C26.715 57.3774 26.6214 57.2215 26.5743 57.065C26.5431 56.9091 26.5278 56.7373 26.5278 56.5497C26.5278 56.3626 26.5278 56.1985 26.5278 56.0579C26.5278 55.8703 26.6291 55.5973 26.8322 55.2379C27.0358 54.8785 27.5202 54.1679 28.2861 53.1056C29.052 52.0279 29.6147 51.216 29.9739 50.669C29.5677 50.716 29.0443 50.7396 28.4033 50.7396C27.5904 50.7396 26.9263 50.5913 26.4106 50.2943C25.9103 49.9978 25.6601 49.6307 25.6601 49.1931C25.6601 48.6931 25.7931 48.1624 26.0586 47.6001C26.3246 47.0219 26.6684 46.5459 27.0905 46.1707C27.5121 45.7806 27.9341 45.5853 28.3562 45.5853C28.6376 45.5853 28.9737 45.6712 29.3645 45.843L35.4136 44.3436C38.7896 40.6888 41.3061 37.7988 42.9627 35.6746C44.6197 33.5505 45.448 32.184 45.448 31.5748C45.448 31.2312 45.3544 30.95 45.1666 30.7313C44.9789 30.4971 44.7134 30.3175 44.3696 30.1925C44.0411 30.0675 43.6585 30.005 43.2205 30.005C42.7049 30.005 41.8843 30.1456 40.7588 30.4268C39.6491 30.7079 38.3205 31.1218 36.7734 31.6685C35.2259 32.2151 33.2956 32.9728 30.9822 33.9411C29.2628 34.644 28.4033 35.0893 28.4033 35.2764C28.4033 35.4952 28.5204 35.6358 28.7547 35.6982C28.9895 35.7605 29.2863 35.8076 29.6459 35.8387C30.0209 35.8699 30.2087 35.9246 30.2087 36.0028C30.2087 36.0652 30.1146 36.1511 29.9273 36.2605C29.7554 36.3699 29.5129 36.5028 29.2003 36.6588ZM70.3237 49.8025V51.372C69.2918 52.3091 68.4636 52.9338 67.8384 53.2461C67.2132 53.5585 66.3144 53.6837 65.1423 53.6214C63.1102 56.0267 61.3207 57.2291 59.7731 57.2291C58.8978 57.2291 58.1007 56.9403 57.3819 56.3626C56.6626 55.7844 56.0845 54.9956 55.6466 53.9961C55.2246 52.9966 55.0138 51.8796 55.0138 50.646C55.0138 49.646 55.3417 48.5372 55.9986 47.3189C56.6703 46.1007 57.5303 44.9683 58.5775 43.9218C59.6401 42.8595 60.7733 42.0083 61.9771 41.3682C63.1803 40.7118 64.2982 40.3841 65.3295 40.3841C66.0642 40.3841 66.6428 40.5012 67.0648 40.7353C67.4864 40.9541 67.6977 41.2665 67.6977 41.6724C67.6977 41.9848 67.5181 42.3441 67.1585 42.7501C67.7524 42.8753 68.1587 43.086 68.3776 43.383C68.5966 43.6641 68.7056 44.1871 68.7056 44.9524C68.7056 45.7024 68.526 46.6472 68.1663 47.7872C67.8225 48.9278 67.3457 49.9978 66.7364 50.9972L67.1585 51.419H67.51C67.776 51.419 68.0338 51.3566 68.284 51.2314C68.5495 51.0908 68.7838 50.9502 68.9869 50.8096C69.1905 50.6537 69.6356 50.3178 70.3237 49.8025ZM65.4938 43.6406C64.1964 44.4218 63.0867 45.1324 62.1643 45.7725C61.2424 46.3972 60.4607 47.0377 59.8202 47.6937C59.1792 48.3342 58.7494 48.9825 58.5305 49.6384C58.1396 51.3878 57.9442 52.3326 57.9442 52.4731C57.9442 53.5043 58.6635 54.0196 60.1016 54.0196C60.7733 54.0196 61.8988 53.4414 63.4776 52.2855C63.2116 51.5519 63.079 50.849 63.079 50.1772C63.079 49.1931 63.2821 48.1936 63.6884 47.1783C64.0951 46.1477 64.6967 44.9683 65.4938 43.6406ZM85.3753 49.8025V51.372C84.3439 52.3091 83.5156 52.9338 82.8905 53.2461C82.2648 53.5585 81.3664 53.6837 80.1939 53.6214C78.1623 56.0267 76.3723 57.2291 74.8252 57.2291C73.9499 57.2291 73.1528 56.9403 72.4335 56.3626C71.7147 55.7844 71.1361 54.9956 70.6987 53.9961C70.2766 52.9966 70.0659 51.8796 70.0659 50.646C70.0659 49.646 70.3938 48.5372 71.0502 47.3189C71.7224 46.1007 72.5819 44.9683 73.6291 43.9218C74.6922 42.8595 75.8254 42.0083 77.0287 41.3682C78.2324 40.7118 79.3498 40.3841 80.3816 40.3841C81.1163 40.3841 81.6944 40.5012 82.1164 40.7353C82.5385 40.9541 82.7498 41.2665 82.7498 41.6724C82.7498 41.9848 82.5697 42.3441 82.2101 42.7501C82.804 42.8753 83.2107 43.086 83.4297 43.383C83.6482 43.6641 83.7576 44.1871 83.7576 44.9524C83.7576 45.7024 83.5781 46.6472 83.2184 47.7872C82.8746 48.9278 82.3978 49.9978 81.7885 50.9972L82.2101 51.419H82.562C82.8276 51.419 83.0854 51.3566 83.3356 51.2314C83.6016 51.0908 83.8359 50.9502 84.039 50.8096C84.2421 50.6537 84.6877 50.3178 85.3753 49.8025ZM80.5458 43.6406C79.2484 44.4218 78.1388 45.1324 77.2164 45.7725C76.2945 46.3972 75.5128 47.0377 74.8718 47.6937C74.2313 48.3342 73.801 48.9825 73.5826 49.6384C73.1917 51.3878 72.9963 52.3326 72.9963 52.4731C72.9963 53.5043 73.7151 54.0196 75.1532 54.0196C75.8254 54.0196 76.9509 53.4414 78.5292 52.2855C78.2636 51.5519 78.1306 50.849 78.1306 50.1772C78.1306 49.1931 78.3342 48.1936 78.7404 47.1783C79.1467 46.1477 79.7488 44.9683 80.5458 43.6406ZM114.565 49.7554V51.2784C111.939 54.1991 109.524 56.6044 107.32 58.4944C105.132 60.3998 102.99 61.8604 100.896 62.8757C98.802 63.9063 96.7777 64.4216 94.8239 64.4216C93.1357 64.4216 91.6822 64.0862 90.4631 63.4145C89.2593 62.7427 88.3451 61.7586 87.7199 60.4622C87.1106 59.1815 86.8057 57.6586 86.8057 55.8938C86.8057 54.5037 87.0246 53.0355 87.4621 51.489C87.9153 49.9272 88.564 48.3577 89.4082 46.7801C90.2523 45.1871 91.2837 43.5471 92.5028 41.86C93.7378 40.173 95.1835 38.4005 96.8401 36.5417C98.5595 34.6205 100.256 32.9651 101.928 31.5748C103.6 30.169 105.117 29.0679 106.476 28.2713C107.836 27.4748 109.094 26.8812 110.251 26.4907C111.423 26.1003 112.392 25.905 113.158 25.905C113.94 25.905 114.604 26.0924 115.151 26.4673C115.698 26.8422 116.12 27.3889 116.417 28.1074C116.714 28.8258 116.862 29.6536 116.862 30.5908C116.862 32.3557 116.261 34.324 115.057 36.4947C113.854 38.6505 112.353 40.7353 110.556 42.7501C108.758 44.7653 107.039 46.413 105.398 47.6937C103.772 48.9589 102.6 49.5914 101.881 49.5914C101.396 49.5914 100.943 49.4042 100.521 49.029C100.115 48.6389 99.9117 48.2013 99.9117 47.7172C99.9117 46.8271 100.38 45.749 101.318 44.4841C102.272 43.2189 103.304 42.063 104.413 41.0165C105.538 39.9546 106.21 39.4235 106.429 39.4235C106.539 39.4235 106.594 39.47 106.594 39.5641C106.594 39.7047 106.508 39.9465 106.336 40.29C106.179 40.6341 106.101 40.8447 106.101 40.9229C106.101 41.0477 106.148 41.1101 106.242 41.1101C106.508 41.1101 107.273 40.3994 108.539 38.9782C109.805 37.557 110.962 35.9952 112.009 34.2923C113.072 32.5745 113.603 31.1687 113.603 30.0753C113.603 29.6224 113.502 29.2788 113.299 29.0445C113.111 28.7946 112.822 28.6696 112.431 28.6696C111.337 28.6696 109.673 29.5599 107.438 31.3405C105.218 33.1057 102.936 35.3623 100.592 38.1112C98.2623 40.8447 96.3167 43.6718 94.7538 46.5925C93.1904 49.5131 92.4092 52.0826 92.4092 54.3008C92.4092 55.5814 92.5964 56.6514 92.9719 57.5103C93.3623 58.3697 93.925 59.0333 94.6597 59.502C95.4102 59.9703 96.3086 60.2045 97.3558 60.2045C99.6226 60.2045 102.193 59.3221 105.07 57.5573C107.946 55.7921 111.11 53.1914 114.565 49.7554ZM125.584 49.5914V51.3254C122.317 55.6515 119.66 57.815 117.613 57.815C116.503 57.815 115.628 57.2138 114.987 56.0109C114.362 54.7926 114.049 53.1996 114.049 51.2314C114.049 49.6384 114.424 47.7484 115.175 45.5618C115.925 43.3594 116.925 41.1336 118.176 38.8846C119.442 36.6199 120.747 34.6517 122.091 32.9805C123.451 31.2937 124.709 30.1144 125.865 29.4428C126.334 29.1616 126.702 29.021 126.967 29.021C127.296 29.021 127.515 29.1694 127.624 29.4662C127.733 29.7473 127.788 30.2393 127.788 30.9422C127.788 33.1134 126.905 35.784 125.139 38.9547C123.372 42.11 120.911 45.3353 117.753 48.6308C117.597 49.4431 117.519 50.0678 117.519 50.5054C117.519 51.5049 117.73 52.3172 118.152 52.9419C118.589 53.5667 119.192 53.879 119.957 53.879C120.348 53.879 120.77 53.7308 121.223 53.4337C121.677 53.1214 122.153 52.7385 122.654 52.2855C123.154 51.8326 124.131 50.9348 125.584 49.5914ZM118.574 45.3742C119.387 44.5777 120.168 43.6718 120.919 42.6565C121.685 41.6412 122.403 40.5559 123.076 39.4C123.748 38.2441 124.271 37.2053 124.646 36.284C125.037 35.3623 125.232 34.6675 125.232 34.1987C125.232 33.8393 125.108 33.6599 124.857 33.6599C124.764 33.6599 124.584 33.7458 124.318 33.9175C123.365 34.6987 122.294 36.2293 121.106 38.5099C119.918 40.7747 119.074 43.0624 118.574 45.3742ZM136.439 48.256C134.173 51.2549 132.446 53.3867 131.258 54.652C130.086 55.9173 129.125 56.5497 128.374 56.5497C127.78 56.5497 127.233 56.3079 126.733 55.8237C126.233 55.3238 125.842 54.6597 125.561 53.832C125.295 52.9885 125.162 52.0907 125.162 51.1378C125.162 50.5131 125.217 49.9507 125.326 49.4508C125.451 48.9513 125.678 48.4043 126.006 47.8107C126.334 47.2018 126.764 46.5459 127.296 45.843C127.843 45.1401 128.507 44.3436 129.288 43.453C129.758 42.9065 130.148 42.4459 130.461 42.0707C130.789 41.6959 131.101 41.4459 131.399 41.3212C131.711 41.1806 132.212 41.1101 132.899 41.1101C133.4 41.1101 133.876 41.1806 134.329 41.3212C134.782 41.4459 135.009 41.5788 135.009 41.7194C135.009 42.0006 134.775 42.5082 134.306 43.2424C133.853 43.9765 133.11 44.8747 132.079 45.9366C131.063 46.983 129.882 48.0137 128.538 49.029C128.241 49.9507 128.093 50.6537 128.093 51.1378C128.093 51.8096 128.351 52.1454 128.866 52.1454C129.054 52.1454 129.367 51.989 129.805 51.6767C130.242 51.3485 130.977 50.7319 132.008 49.826C133.055 48.9042 133.993 48.0919 134.822 47.389C135.431 46.8583 136.135 46.0695 136.932 45.023C137.745 43.9607 138.401 43.1642 138.901 42.633C140.058 41.4147 140.847 40.6259 141.269 40.267C141.691 39.8918 142.098 39.7047 142.488 39.7047C142.864 39.7047 143.114 39.8217 143.238 40.0559C143.379 40.29 143.45 40.7665 143.45 41.4853C143.45 41.813 143.418 42.0788 143.356 42.2818C143.293 42.4847 143.16 42.7501 142.957 43.0783C142.77 43.3906 142.379 43.9765 141.785 44.8354C141.191 45.6943 140.488 46.7096 139.675 47.8813C139.237 48.506 138.854 49.1931 138.526 49.9431C138.198 50.6772 138.034 51.2314 138.034 51.6061C138.034 52.4185 138.354 52.8249 138.995 52.8249C139.526 52.8249 140.144 52.6061 140.847 52.1685C141.55 51.7313 142.629 50.9425 144.083 49.8025V51.372C142.254 53.059 140.902 54.285 140.027 55.0503C139.151 55.8156 138.393 56.3938 137.752 56.7839C137.112 57.1744 136.502 57.3697 135.924 57.3697C134.61 57.3697 133.954 56.589 133.954 55.0268C133.954 54.4332 134.15 53.6367 134.54 52.6373C134.931 51.622 135.564 50.1614 136.439 48.256ZM159.393 49.896V51.419C157.767 52.4496 156.485 52.965 155.547 52.965C155.032 52.965 154.484 52.8791 153.906 52.7073C152.499 54.4879 151.288 55.7921 150.272 56.6202C149.272 57.4479 148.264 57.862 147.248 57.862C146.075 57.862 145.169 57.245 144.528 56.0109C143.903 54.7772 143.59 53.2461 143.59 51.419C143.59 48.9354 144.34 46.2336 145.841 43.3124C147.341 40.3764 149.147 37.6352 151.257 35.0893C153.382 32.5275 155.438 30.4112 157.423 28.7399C159.408 27.0686 160.752 26.233 161.456 26.233C162.128 26.233 162.464 26.6938 162.464 27.6153C162.464 31.7075 157.212 38.8453 146.709 49.029C146.677 49.3102 146.662 49.8648 146.662 50.6925C146.662 52.8479 147.24 53.9256 148.396 53.9256C148.85 53.9256 149.303 53.7461 149.756 53.3867C150.225 53.012 150.936 52.3091 151.89 51.2784C151.515 50.4349 151.327 49.8101 151.327 49.4042C151.327 48.5449 151.679 47.6154 152.382 46.616C153.086 45.6165 153.883 44.7572 154.774 44.0389C155.68 43.3047 156.337 42.9377 156.743 42.9377C157.384 42.9377 157.704 43.3983 157.704 44.32C157.704 45.023 157.517 45.8665 157.142 46.8501C156.782 47.8342 156.251 48.9589 155.547 50.2242C155.813 50.4426 156.024 50.6067 156.18 50.7161C156.337 50.8096 156.571 50.8566 156.884 50.8566C157.603 50.8566 158.439 50.5366 159.393 49.896ZM147.482 46.3818C148.295 45.6789 149.108 44.8512 149.92 43.8983C150.749 42.93 151.952 41.4541 153.531 39.47C155.047 37.5647 156.235 35.9793 157.095 34.714C157.97 33.4334 158.627 32.3716 159.064 31.5279C159.502 30.6845 159.721 30.1066 159.721 29.7942C159.721 29.5599 159.658 29.4428 159.533 29.4428C159.189 29.4428 158.47 30.0129 157.376 31.1531C156.297 32.2775 155.063 33.824 153.672 35.7917C151.749 38.5099 150.358 40.5559 149.498 41.9301C148.639 43.3047 147.967 44.7884 147.482 46.3818Z" fill="white"/>
</svg>
