<svg width="105" height="249" viewBox="0 0 105 249" fill="none" xmlns="http://www.w3.org/2000/svg">
<path d="M82.8981 205.586C81.6981 203.473 80.3981 201.267 79.0981 199.062C74.1981 190.7 68.5981 181.327 68.5981 176.641V158.263C69.4981 157.253 70.7981 155.507 70.7981 153.393V140.529C71.4981 139.794 72.0981 138.691 72.0981 137.129C72.0981 135.291 70.8981 134.188 70.0981 133.361C69.3981 132.718 69.1981 132.534 69.1981 132.075C69.1981 131.891 69.1982 131.616 69.2981 131.248C69.3981 130.145 69.4981 128.399 68.9981 126.654L70.0981 125.827C70.2981 126.01 70.4981 126.102 70.6981 126.102C70.7981 126.102 70.7981 126.102 70.8981 126.102C71.1981 126.102 71.3981 126.01 71.5981 125.827L72.3981 125.275C72.7981 125.367 73.1981 125.459 73.6981 125.459C74.6981 125.459 75.7981 125.091 76.6981 124.448C77.6981 123.713 79.7981 121.6 76.6981 117.832C75.2981 116.178 73.7981 115.259 72.2981 115.259C71.3981 115.259 70.5982 115.535 69.7981 116.086C67.9981 117.373 67.7981 118.843 67.7981 119.762L66.9981 120.405C66.4981 120.773 66.3981 121.324 66.6981 121.783L65.7981 122.427C64.7981 121.783 63.6981 121.232 62.3981 120.773L65.5981 108.276C68.1981 106.897 74.1981 102.762 74.1981 95.1357C74.1981 87.8765 67.0982 84.2928 60.7981 82.9145V57.1856C64.1982 55.3478 66.4981 51.9479 66.4981 48.0886C66.4981 44.8725 64.8981 41.932 62.3981 40.0024C61.7981 38.7159 61.1981 37.2457 61.1981 36.4187C61.1981 35.0404 61.5981 33.9377 61.8981 33.2945H77.8981C80.7981 33.2945 82.5982 31.4567 83.2981 29.3433C86.1982 28.8838 87.7981 27.5974 87.7981 25.8515C87.7981 23.4624 84.7981 23.0948 82.9981 22.8191C81.2981 22.6354 78.7981 22.4516 75.6981 22.2678C72.9981 22.1759 70.0981 22.084 67.0981 21.9921C68.5981 20.1544 69.2981 18.6841 69.2981 17.5815C69.2981 16.0194 68.4981 15.0086 67.8981 14.2735C67.4981 13.7221 67.2981 13.5384 67.2981 13.2627C67.3981 12.8033 68.3981 11.7925 68.9981 11.0574C70.4981 9.21958 72.2981 7.19802 72.2981 4.9008C72.2981 0.214469 65.3981 0.214478 60.3981 0.214478C59.5981 0.214478 58.6981 0.214478 57.8981 0.214478C56.9981 0.214478 55.9981 0.214478 54.9981 0.214478C53.9981 0.214478 53.0981 0.214478 52.0981 0.214478C51.1981 0.214478 50.3981 0.214478 49.5981 0.214478C46.4981 0.214478 44.0981 0.306366 42.1981 0.673922C38.1981 1.50092 37.5981 3.70625 37.5981 4.9008C37.5981 7.19802 39.2981 9.31147 40.8981 11.0574C41.4981 11.7925 42.3981 12.8033 42.5981 13.2627C42.5981 13.5384 42.4981 13.7221 41.9981 14.2735C41.3981 14.9167 40.5981 16.0194 40.5981 17.5815C40.5981 18.6841 41.3981 20.1544 42.7981 21.9921C39.7981 22.084 36.8981 22.084 34.1981 22.2678C31.0981 22.4516 28.5981 22.5435 26.8981 22.8191C25.0981 23.0029 22.0981 23.4624 22.0981 25.8515C22.0981 27.6893 23.6981 28.8838 26.5981 29.3433C27.2981 31.4567 29.0981 33.2945 31.9981 33.2945H47.9981C48.2981 34.0296 48.6981 35.0404 48.6981 36.4187C48.6981 37.2457 48.1981 38.7159 47.4981 40.0024C44.9981 41.932 43.3981 44.7806 43.3981 48.0886C43.3981 51.9479 45.6981 55.3478 49.0981 57.1856V82.9145C42.8981 84.2928 35.7981 87.8765 35.7981 95.1357C35.7981 102.762 41.8981 106.806 44.3981 108.276L47.5981 120.773C46.1981 121.232 44.9981 121.783 43.9981 122.519L39.6981 118.384C39.7981 118.016 39.5981 117.74 39.3981 117.465L36.0981 114.34C35.9981 114.249 35.7981 114.157 35.6981 114.065C35.6981 114.065 34.5981 113.697 33.4981 112.778C32.2981 111.768 30.8981 110.022 30.8981 110.022C30.8981 109.93 30.7981 109.93 30.6981 109.838L25.7981 105.795C25.5981 105.611 25.2981 105.519 24.9981 105.519C24.9981 105.519 24.9981 105.519 24.8981 105.519C24.5981 105.519 24.3981 105.611 24.1981 105.795C17.8981 100.741 12.8981 99.0869 8.79814 100.741C3.09814 103.038 0.598145 111.308 0.598145 127.481C0.598145 136.853 0.598143 152.474 6.69814 166.625C11.9981 178.846 21.0981 188.127 33.7981 194.376C32.8981 195.938 31.9981 197.5 31.0981 199.062C25.8981 207.883 21.3981 215.51 21.3981 220.013C21.3981 230.12 42.3981 231.683 54.8981 231.683C67.3981 231.683 88.3981 230.212 88.3981 220.013C88.3981 217.807 87.3981 214.959 85.6981 211.559C93.7981 214.591 99.5981 217.532 99.9981 219.829C100.098 220.564 99.1981 221.575 97.3981 222.586C85.6981 229.845 39.6982 241.331 37.7981 241.882C37.5981 241.698 37.1982 241.515 36.7981 241.515C36.0981 241.515 35.2981 241.974 35.0981 243.077L33.8981 243.352C33.6981 243.169 33.2981 243.077 32.8981 243.077C31.9981 243.077 31.0981 243.72 31.0981 245.282C31.0981 246.569 31.9981 248.039 33.3981 248.039C33.7981 248.039 34.3981 247.855 34.9981 247.212L36.1981 246.752C36.4981 247.028 36.9981 247.304 37.6981 247.304C38.5981 247.304 39.0981 246.752 39.2981 246.201C43.2981 245.19 87.8981 233.98 100.198 226.353C103.698 224.148 105.298 221.759 104.898 219.186C104.498 214.683 97.5981 210.732 82.8981 205.586ZM31.1981 227.272C29.8981 226.812 28.6981 226.353 27.4981 225.71C26.3981 225.067 25.2981 224.24 24.4981 223.137C24.0981 222.586 23.7981 222.034 23.5981 221.299L23.4981 220.748V220.288V220.105V220.013C23.4981 219.921 23.4981 219.921 23.4981 219.921V219.829V219.369C23.5981 218.175 23.9981 216.98 24.3981 215.878C25.1981 213.672 26.2981 211.743 27.2981 209.813C29.3981 205.954 31.5981 202.462 33.5981 199.154C35.5981 195.846 37.3981 192.905 38.8981 190.241C40.3981 187.576 41.6981 185.187 42.4981 183.165C43.3981 181.144 43.8981 179.49 44.0981 178.387C44.1981 178.111 44.1981 177.836 44.1981 177.652C44.1981 177.468 44.1981 177.284 44.1981 177.101C44.1981 176.825 44.1981 176.641 44.1981 176.641C44.1981 166.625 44.1981 157.436 44.1981 157.436C44.1981 157.436 41.9981 155.599 41.9981 153.485C41.9981 151.923 41.9981 145.307 41.9981 141.815H55.0981H60.1981C60.1981 141.907 60.1981 141.999 60.1981 142.091L43.2981 143.102L60.1981 144.112C60.1981 146.961 60.1981 151.464 60.1981 156.517L44.9981 157.62L60.1981 158.723C60.1981 165.706 60.1981 173.609 60.1981 180.133C60.1981 195.938 70.5981 205.127 70.5981 216.705C70.5981 220.472 69.9981 223.137 68.7981 225.067C68.6982 225.067 68.4981 225.158 68.3981 225.158C66.9981 225.434 65.4981 225.71 63.9981 225.894C62.4981 226.077 60.8981 226.353 59.2981 226.445C57.6982 226.629 55.9981 226.721 54.3981 226.812C52.7981 226.812 51.0981 226.904 49.4981 226.812C47.8981 226.812 46.2981 226.721 44.6981 226.629C43.1981 226.445 41.6982 226.445 40.2981 226.169C38.8981 225.985 37.5981 225.802 36.2981 225.618C35.0981 225.434 33.8981 225.25 32.8981 224.975C31.8981 224.791 30.9981 224.607 30.2981 224.423C28.8981 224.056 28.0981 223.872 28.0981 223.872C28.0981 223.872 28.8981 224.148 30.2981 224.607C30.9981 224.883 31.8981 225.067 32.8981 225.342C33.8981 225.618 34.9981 225.894 36.1981 226.169C37.3981 226.445 38.7981 226.721 40.1981 226.996C41.5981 227.272 43.0981 227.548 44.6981 227.731C46.2981 227.915 47.8981 228.191 49.4981 228.283C51.0981 228.466 52.7981 228.558 54.4981 228.65C55.4981 228.65 56.4981 228.65 57.4981 228.742C62.0981 228.65 66.6981 228.375 71.0981 227.731C73.6981 227.364 76.2981 226.812 78.6981 226.077C79.8981 225.71 81.0981 225.25 82.0981 224.607C83.0981 224.056 84.0981 223.321 84.6981 222.494C85.2981 221.667 85.5981 220.656 85.4981 219.553C85.4981 219.278 85.3981 219.002 85.3981 218.726C85.3981 218.451 85.2981 218.175 85.1981 217.991C85.0981 217.44 84.8981 216.888 84.6981 216.429C83.8981 214.316 82.9981 212.386 81.9981 210.456C79.9981 206.597 77.8981 203.013 75.9981 199.705C72.1981 193.089 69.1981 187.484 67.5981 183.349C66.7981 181.327 66.3981 179.582 66.1981 178.479C66.1981 178.203 66.0981 177.928 66.0981 177.744C66.0981 177.56 66.0981 177.376 66.0981 177.192C66.0981 176.917 66.0981 176.733 66.0981 176.733C66.0981 176.733 66.0981 176.917 66.0981 177.192C66.0981 177.376 66.0981 177.56 66.1981 177.744C66.1981 177.928 66.2981 178.203 66.2981 178.479C66.4981 179.582 67.0981 181.236 67.8981 183.257C68.7981 185.279 69.9981 187.668 71.4981 190.333C72.9981 192.997 74.7981 196.03 76.7981 199.246C78.7981 202.554 80.9981 206.046 83.0981 209.905C84.0981 211.835 85.1981 213.856 85.9981 215.97C86.1981 216.521 86.3981 217.072 86.4981 217.624C86.5981 217.899 86.6981 218.175 86.6981 218.542C86.7981 218.818 86.7981 219.186 86.7981 219.461C86.8981 220.656 86.5982 222.126 85.7981 223.137C84.9981 224.24 83.8981 225.067 82.7981 225.71C81.5982 226.353 80.3981 226.904 79.0981 227.272C76.5981 228.099 73.8981 228.65 71.2981 229.018C65.9981 229.845 60.4981 230.12 54.9981 230.12C49.4981 230.12 44.0981 229.753 38.6981 229.018C36.2981 228.65 33.6981 228.099 31.1981 227.272ZM25.2981 106.622L30.1981 110.665C30.1981 110.665 31.6981 112.503 32.9981 113.605C34.2981 114.708 35.5981 115.167 35.5981 115.167L38.8981 118.292L38.5981 118.567L43.4981 123.254L43.3981 123.346C43.2981 123.437 43.1981 123.621 43.0981 123.713L37.9981 120.956L39.2981 122.427L37.1981 120.956L38.2981 118.935L35.7981 120.497L33.1981 118.659L35.1981 115.443L32.1981 117.648C31.9981 117.373 31.6981 117.005 31.1981 116.546C31.2981 116.546 31.2981 116.638 31.3981 116.638C31.7981 116.821 32.0981 116.913 32.0981 116.913C32.0981 116.913 31.9981 116.638 31.6981 116.362C31.4981 115.994 31.0981 115.627 30.5981 115.259C30.1981 114.892 29.6981 114.616 29.2981 114.432C28.8981 114.249 28.5981 114.157 28.5981 114.157C28.5981 114.157 28.6981 114.432 28.9981 114.708C29.0981 114.8 29.0981 114.892 29.1981 114.984C28.5981 114.616 27.9981 114.249 27.5981 113.973L29.4981 110.849L26.3981 113.146L22.0981 109.654L23.5981 108.092L25.2981 106.622ZM50.9981 33.3864H55.2981H55.7981L51.5981 33.9377L57.1981 34.6728V37.8889C56.5981 37.797 55.9981 37.7051 55.2981 37.7051C53.8981 37.7051 52.4981 37.9808 51.1981 38.4402C51.3981 37.797 51.4981 37.1538 51.4981 36.6025C51.4981 35.316 51.2981 34.2134 50.9981 33.3864ZM24.8981 25.8515C24.8981 25.8515 24.8981 25.7596 24.9981 25.6677C25.0981 25.5758 25.1981 25.4839 25.3981 25.392C25.7981 25.2083 26.4981 25.0245 27.2981 24.9326C28.9981 24.6569 31.2981 24.2894 34.1981 24.1056C37.0981 23.9218 40.3981 23.738 43.9981 23.5543C45.7981 23.4624 47.6981 23.4624 49.4981 23.4624C51.3981 23.4624 53.2981 23.4624 55.1981 23.4624C57.0981 23.4624 58.9981 23.4624 60.8981 23.5543C62.7981 23.5543 64.5981 23.6461 66.3981 23.6461C69.9981 23.738 73.3981 23.9218 76.1981 24.1975C79.0981 24.3812 81.4981 24.7488 83.0981 25.0245C83.8981 25.2083 84.5981 25.392 84.9981 25.4839C85.1981 25.5758 85.3981 25.6677 85.3981 25.7596C85.4981 25.8515 85.4981 25.9434 85.4981 25.9434C85.4981 25.9434 85.4981 25.8515 85.3981 25.8515C85.2981 25.7596 85.1981 25.6677 84.9981 25.6677C84.5981 25.5758 83.8981 25.4839 83.0981 25.392C82.2981 25.3001 81.2981 25.3001 80.0981 25.2083C80.0981 25.392 79.9981 25.6677 79.6981 25.9434L29.2981 27.4136L73.7981 28.7C73.3981 29.0676 73.0982 29.4351 72.7981 29.7108L31.7981 30.7216L52.1981 31.181H49.4981C43.3981 31.181 34.0981 31.181 31.9981 31.181C28.8981 31.181 28.5981 27.4136 28.5981 27.4136C28.5981 27.4136 24.8981 27.1379 24.8981 25.8515ZM45.2981 13.3546C45.2981 13.3546 45.2981 13.1708 45.1981 12.8033C45.0981 12.4357 44.7981 12.0681 44.2981 11.5168C43.8981 10.9655 43.2981 10.4141 42.5981 9.67902C41.8981 8.94391 41.1981 8.20881 40.4981 7.10614C40.2981 6.83048 40.1981 6.5548 40.0981 6.27914C39.9981 5.91158 39.8981 5.54403 39.7981 5.26837C39.6982 4.90081 39.7981 4.44136 39.8981 4.07381C40.0981 3.70625 40.3981 3.33869 40.6981 3.06302C41.3981 2.60358 42.1981 2.41981 42.9981 2.23603C43.7981 2.05225 44.5981 1.96036 45.3981 1.96036C46.9981 1.86847 48.5981 1.77659 50.2981 1.77659C51.8981 1.77659 53.5981 1.77659 55.2981 1.77659C58.5981 1.77659 61.8981 1.68469 65.0981 1.96036C65.8981 2.05225 66.6981 2.14414 67.4981 2.23603C68.2981 2.41981 69.0982 2.60358 69.7981 3.06302C70.0982 3.33869 70.4981 3.61436 70.5981 4.07381C70.6981 4.25759 70.6982 4.53325 70.7981 4.71703V4.9927C70.7981 5.17648 70.7981 5.17648 70.7981 5.26837C70.6982 6.00348 70.3981 6.55481 70.0981 7.10614C69.4981 8.20881 68.6981 8.94391 67.9981 9.67902C67.2981 10.4141 66.7981 10.9655 66.2981 11.5168C65.8981 12.0681 65.5981 12.5276 65.4981 12.8033C65.3981 13.1708 65.3981 13.3546 65.3981 13.3546C65.3981 13.3546 65.3981 13.1708 65.4981 12.8033C65.5981 12.4357 65.7981 11.9762 66.1981 11.333C66.5981 10.7817 67.0981 10.0466 67.6981 9.31147C68.2981 8.57636 68.8981 7.65747 69.3981 6.73858C69.5981 6.27914 69.7981 5.72781 69.7981 5.17647C69.7981 5.08458 69.7981 4.9927 69.7981 4.9927V4.71703C69.7981 4.62514 69.7981 4.53325 69.6981 4.44136C69.5981 4.25758 69.3981 4.0738 69.1981 3.98191C68.6981 3.70625 68.0981 3.52248 67.3981 3.43059C66.6981 3.3387 65.9981 3.2468 65.1981 3.2468C64.7981 3.2468 64.3981 3.2468 63.9981 3.2468C64.2981 3.79813 64.5981 4.62514 64.5981 5.63592C64.5981 8.11692 62.8981 9.49524 61.7981 11.0574L46.6981 13.3546L61.8981 15.6518C62.2981 16.0194 62.6981 16.3869 62.6981 17.3977C62.6981 18.3166 61.6981 19.4193 60.6981 20.3381L47.9981 21.3489L55.9981 21.9921C55.7981 21.9921 55.6981 21.9921 55.4981 21.9921C52.8981 21.9921 49.6981 21.9921 46.4981 22.084C45.0981 20.6138 43.5981 18.6841 43.5981 17.7652C43.2981 15.9275 45.2981 15.468 45.2981 13.3546ZM66.0981 104.968C66.8981 104.325 67.6981 103.681 68.3981 102.854C69.7981 101.292 70.7981 99.5464 71.1981 97.5248C71.2981 97.0654 71.3981 96.514 71.3981 96.0546C71.3981 95.5951 71.4981 95.0438 71.3981 94.5844C71.3981 94.1249 71.1981 93.5736 71.0981 93.1142C70.8981 92.6547 70.6981 92.1953 70.4981 91.7358C69.9981 90.8169 69.3981 89.9899 68.5981 89.2548C68.1981 88.8873 67.7981 88.5197 67.3981 88.244C66.9981 87.8765 66.4981 87.6008 66.0981 87.3251C67.0981 87.7846 67.9981 88.4278 68.7981 89.071C69.5982 89.8061 70.2981 90.6331 70.8981 91.4601C71.1981 91.9196 71.3981 92.379 71.5981 92.9304C71.7981 93.3898 71.8981 93.9412 71.9981 94.4925C72.0981 95.0438 72.0981 95.5033 71.9981 96.0546C71.9981 96.6059 71.8981 97.0654 71.7981 97.6167C71.3981 99.7301 70.2981 101.66 68.8981 103.222C68.1981 104.049 67.3981 104.784 66.4981 105.427C66.0981 105.795 65.5981 106.07 65.0981 106.346C64.6981 106.622 64.1982 106.806 63.7981 107.081L62.9981 110.022C62.6981 111.032 62.3981 112.135 62.0981 113.146C61.7981 114.157 61.4981 115.259 61.1981 116.27C60.8981 117.281 60.5981 118.292 60.1981 119.394C60.3981 118.292 60.5981 117.281 60.7981 116.27C60.9981 115.259 61.2981 114.157 61.4981 113.146C61.6981 112.135 61.9981 111.032 62.1981 110.022L62.9981 106.897V106.714L63.1981 106.622C63.6981 106.438 64.0981 106.162 64.5981 105.887C65.2981 105.519 65.6981 105.243 66.0981 104.968ZM57.7981 82.455V58.3801C57.9981 58.2882 58.2981 58.2882 58.4981 58.1964V82.5469C58.2981 82.5469 58.0981 82.5469 57.7981 82.455ZM46.1981 47.0778C46.1981 46.894 46.1982 46.7103 46.2981 46.5265C46.2981 46.3427 46.3981 46.067 46.4981 45.7914C46.5981 45.3319 46.7981 44.7806 47.0981 44.2293C47.3981 43.6779 47.7981 43.1266 48.2981 42.5752C48.7981 42.0239 49.3981 41.4726 50.0981 41.0131C50.7981 40.5537 51.5981 40.1861 52.4981 39.9105C53.3981 39.6348 54.2981 39.5429 55.1981 39.5429C56.0981 39.5429 56.9981 39.6348 57.8981 39.9105C58.7981 40.1861 59.5981 40.5537 60.2981 41.0131C60.9981 41.4726 61.5981 41.932 62.0981 42.5752C62.5981 43.1266 62.9981 43.6779 63.2981 44.2293C63.3981 44.5049 63.5981 44.7806 63.6981 45.0562C63.7981 45.3319 63.8981 45.6076 63.8981 45.7914C63.9981 46.067 63.9981 46.2508 64.0981 46.5265C64.0981 46.7103 64.0981 46.9859 64.1981 47.0778C64.2981 47.4454 64.1981 47.721 64.1981 47.9048C64.1981 48.0886 64.1981 48.1805 64.1981 48.1805C64.1981 48.1805 64.1981 48.0886 64.1981 47.9048C64.1981 47.721 64.1981 47.4454 64.0981 47.0778C64.0981 46.894 63.9981 46.7103 63.9981 46.5265C63.8981 46.3427 63.8981 46.067 63.7981 45.8833C63.5981 45.4238 63.3981 44.9644 63.0981 44.413C62.7981 43.8617 62.3981 43.4023 61.7981 42.8509L61.6981 42.759C62.2981 44.5968 63.3981 49.0075 60.1981 52.2236C57.1981 55.164 52.2981 54.9802 49.6981 54.7046C47.6981 53.1425 46.2981 50.8452 46.2981 48.2724C46.2981 48.2724 46.2981 48.1805 46.2981 47.9967C46.1982 47.721 46.1981 47.4454 46.1981 47.0778ZM55.2981 58.7477V78.5038L54.4981 68.6717L53.2981 82.455C52.8981 82.455 52.3981 82.5469 51.9981 82.6388V58.2883C52.9981 58.5639 54.0981 58.6558 55.2981 58.7477ZM55.2981 84.5685C56.4981 84.5685 58.0981 84.7523 59.7981 85.0279C59.7981 85.0279 64.3981 86.2225 64.3981 95.3195C64.3981 99.3626 59.4981 104.968 58.1981 106.438C57.3981 106.622 56.4981 106.806 55.6981 106.989C55.1981 107.081 54.6982 107.173 54.2981 107.173C53.7981 107.265 53.2981 107.265 52.8981 107.265C52.3981 107.265 51.9981 107.265 51.5981 107.265C51.1981 107.265 50.7981 107.265 50.3981 107.265C49.5981 107.265 48.9981 107.173 48.5981 107.173C48.1981 107.081 47.8981 107.081 47.8981 107.081C47.8981 107.081 48.0981 107.173 48.4981 107.357C48.8981 107.541 49.4981 107.724 50.1981 108C50.5981 108.092 50.9981 108.276 51.3981 108.368C51.7981 108.46 52.2981 108.643 52.7981 108.735C53.2981 108.827 53.7981 108.919 54.2981 109.011C54.7981 109.103 55.2981 109.195 55.8981 109.195C56.4981 109.287 57.1982 109.287 57.7981 109.378L57.1981 117.74L56.8981 110.665L55.0981 119.946C53.4981 119.946 51.9981 120.129 50.6981 120.313L47.2981 106.897C47.2981 106.897 38.9981 103.406 38.9981 95.3195C38.5981 87.1414 50.1982 84.5685 55.2981 84.5685ZM55.2981 122.151C56.3981 122.151 57.2981 122.243 58.1981 122.243C59.7981 124.081 62.0981 127.572 62.0981 131.616C62.0981 131.799 62.0981 131.891 62.0981 131.983L45.7981 133.178L64.1981 134.556C64.4981 134.924 64.6981 135.383 64.6981 135.842C64.6981 137.037 63.7981 138.507 63.2981 139.334H55.3981H42.2981C42.2981 139.334 40.9981 138.967 40.9981 136.945C40.9981 134.924 43.7981 134.464 43.7981 131.983C43.6982 129.594 41.2981 122.151 55.2981 122.151ZM68.4981 121.967L67.8981 121.232L69.2981 120.221C69.2981 120.221 68.5981 118.475 70.6981 117.005C71.2981 116.546 71.8981 116.362 72.4981 116.362C73.8981 116.362 75.0981 117.373 75.9981 118.475C77.1981 119.946 78.2981 122.059 76.1981 123.529C75.2981 124.173 74.5981 124.356 73.8981 124.356C73.6981 124.356 73.4981 124.356 73.3981 124.356L69.4981 120.589L71.6981 124.448L71.3981 124.632L68.5981 122.151L69.7981 124.632L68.4981 125.551C68.1981 124.816 67.6981 124.081 66.9981 123.346C66.8981 123.254 66.7981 123.254 66.7981 123.162L68.4981 121.967ZM5.79814 127.481C5.79814 109.654 9.09814 105.611 11.0981 104.876C13.1981 104.049 16.7981 105.519 21.2981 109.103C21.1981 109.287 21.0981 109.562 21.0981 109.746C21.0981 110.022 21.2981 110.297 21.4981 110.481L26.3981 114.524C26.4981 114.616 26.4981 114.616 26.5981 114.616C26.5981 114.616 28.6981 115.719 29.8981 116.73C30.9981 117.648 31.5981 118.567 31.5981 118.659C31.6981 118.843 31.7981 118.935 31.8981 119.027L35.5981 121.692C35.7981 121.875 36.0981 121.967 36.2981 121.967C36.3981 121.967 36.4981 121.967 36.5981 121.967L41.7981 125.643C40.8981 127.756 41.0981 129.87 41.1981 131.156C41.1981 131.524 41.2981 131.799 41.2981 131.983C41.2981 132.351 41.0981 132.534 40.3981 133.27C39.5981 134.005 38.3981 135.199 38.3981 137.037C38.3981 138.599 38.9981 139.702 39.6981 140.437V153.301C39.6981 155.415 40.9981 157.253 41.8981 158.171V176.549C41.8981 179.673 39.4981 184.819 36.3981 190.333C5.79814 175.355 5.79814 144.756 5.79814 127.481ZM36.8981 246.109C36.8981 246.017 36.8981 246.017 36.8981 245.925C36.8981 245.65 36.8981 245.282 36.7981 244.915C36.6982 244.547 36.5981 244.271 36.3981 244.088C36.1981 243.904 36.0981 243.812 36.0981 243.812C36.0981 243.812 36.1982 243.904 36.2981 244.179C36.3981 244.363 36.4981 244.731 36.3981 245.006C36.3981 245.282 36.2981 245.65 36.1981 245.833C36.0981 246.017 36.0981 246.109 36.0981 246.109L35.1981 246.385C35.1981 246.109 35.1981 245.742 35.0981 245.466C34.9981 245.006 34.7981 244.639 34.4981 244.363C34.2981 244.088 34.0981 243.996 34.0981 243.996C34.0981 243.996 34.2981 244.179 34.3981 244.455C34.5981 244.731 34.6981 245.098 34.6981 245.466C34.6981 245.833 34.5981 246.293 34.4981 246.569C34.3981 246.752 34.3981 246.936 34.2981 246.936C34.0981 247.12 33.7981 247.212 33.5981 247.212C32.7981 247.212 31.9981 246.201 31.9981 245.19C31.9981 244.271 32.4981 243.72 33.0981 243.72C33.6981 243.72 33.8981 244.088 33.8981 244.088L35.9981 243.536C35.9981 242.617 36.4981 242.158 36.9981 242.158C37.5981 242.158 37.8981 242.801 37.8981 242.801L38.3981 242.617C38.4981 242.617 38.4981 242.709 38.5981 242.709C38.7981 242.801 39.0981 242.985 39.2981 243.261C39.4981 243.536 39.6981 243.812 39.6981 244.088C39.7981 244.363 39.7981 244.547 39.7981 244.547C39.7981 244.547 39.7981 244.363 39.7981 244.088C39.7981 243.812 39.6981 243.444 39.5981 243.077C39.5981 242.985 39.4981 242.893 39.4981 242.801C39.7981 243.077 39.9981 243.352 40.0981 243.904C40.2981 244.731 39.8981 245.19 39.8981 245.19L39.4981 245.282C39.2981 243.628 37.9981 242.893 37.9981 242.893C37.9981 242.893 38.7981 244.363 38.7981 245.374V245.466C38.7981 245.742 38.5981 246.385 37.7981 246.385C37.3981 246.477 37.0981 246.293 36.8981 246.109ZM42.8981 243.628C42.8981 243.904 42.7981 244.088 42.5981 244.271C42.4981 244.455 42.3981 244.547 42.2981 244.639C42.1982 244.731 42.1981 244.731 42.1981 244.731C42.1981 244.731 42.1981 244.639 42.1981 244.547C42.1981 244.455 42.1981 244.271 42.1981 244.088C42.1981 243.996 42.1981 243.904 42.1981 243.812C42.1981 243.72 42.1981 243.628 42.1981 243.536C42.1981 243.444 42.1981 243.352 42.1981 243.261C42.1981 243.169 42.0981 243.077 42.0981 242.985C41.9981 242.801 41.8981 242.709 41.7981 242.525C41.6982 242.434 41.4981 242.25 41.2981 242.158C40.9981 241.974 40.6981 241.79 40.6981 241.79C40.6981 241.79 40.9981 241.698 41.3981 241.79C41.5981 241.79 41.8981 241.882 42.0981 242.066C42.1981 242.158 42.3981 242.25 42.4981 242.342C42.5981 242.434 42.6982 242.617 42.7981 242.709C42.8981 242.893 42.8981 242.985 42.8981 243.169C42.8981 243.352 42.8981 243.536 42.8981 243.628ZM45.0981 243.169C45.0981 243.444 44.9981 243.628 44.7981 243.812C44.6982 243.996 44.5981 244.088 44.4981 244.179C44.3981 244.271 44.3981 244.271 44.3981 244.271C44.3981 244.271 44.3981 244.179 44.3981 244.088C44.3981 243.996 44.3981 243.812 44.3981 243.628C44.3981 243.536 44.3981 243.444 44.3981 243.352C44.3981 243.261 44.3981 243.169 44.3981 243.077C44.3981 242.985 44.3981 242.893 44.3981 242.801C44.3981 242.709 44.2981 242.617 44.2981 242.525C44.1982 242.342 44.0981 242.25 43.9981 242.066C43.8981 241.974 43.6981 241.79 43.4981 241.698C43.1981 241.515 42.8981 241.331 42.8981 241.331C42.8981 241.331 43.1981 241.239 43.5981 241.331C43.7981 241.331 44.0981 241.423 44.2981 241.607C44.3981 241.698 44.5981 241.79 44.6981 241.882C44.7981 241.974 44.8981 242.158 44.9981 242.25C45.0981 242.434 45.0981 242.525 45.0981 242.709C45.0981 242.893 45.0981 242.985 45.0981 243.169ZM47.2981 242.525C47.2981 242.801 47.1981 242.985 46.9981 243.169C46.8981 243.352 46.7981 243.444 46.6981 243.536C46.5981 243.628 46.5981 243.628 46.5981 243.628C46.5981 243.628 46.5981 243.536 46.5981 243.444C46.5981 243.352 46.5981 243.169 46.5981 242.985C46.5981 242.893 46.5981 242.801 46.5981 242.709C46.5981 242.617 46.5981 242.525 46.5981 242.434C46.5981 242.342 46.5981 242.25 46.5981 242.158C46.5981 242.066 46.4981 241.974 46.4981 241.882C46.3981 241.698 46.2981 241.607 46.1981 241.423C46.0981 241.331 45.8981 241.147 45.6981 241.055C45.3981 240.871 45.0981 240.688 45.0981 240.688C45.0981 240.688 45.3981 240.596 45.7981 240.688C45.9981 240.688 46.2981 240.78 46.4981 240.963C46.5981 241.055 46.7981 241.147 46.8981 241.239C46.9981 241.331 47.0981 241.515 47.1981 241.607C47.2981 241.79 47.2981 241.882 47.2981 242.066C47.2981 242.25 47.2981 242.342 47.2981 242.525ZM49.4981 241.974C49.4981 242.25 49.3981 242.434 49.1981 242.617C49.0981 242.801 48.9981 242.893 48.8981 242.985C48.7981 243.077 48.7981 243.077 48.7981 243.077C48.7981 243.077 48.7981 242.985 48.7981 242.893C48.7981 242.801 48.7981 242.617 48.7981 242.434C48.7981 242.342 48.7981 242.25 48.7981 242.158C48.7981 242.066 48.7981 241.974 48.7981 241.882C48.7981 241.79 48.7981 241.698 48.7981 241.607C48.7981 241.515 48.6981 241.423 48.6981 241.331C48.5981 241.147 48.4981 241.055 48.3981 240.871C48.2981 240.78 48.0981 240.596 47.8981 240.504C47.5981 240.32 47.2981 240.136 47.2981 240.136C47.2981 240.136 47.5981 240.044 47.9981 240.136C48.1981 240.136 48.4981 240.228 48.6981 240.412C48.7981 240.504 48.9981 240.596 49.0981 240.688C49.1981 240.78 49.2981 240.963 49.3981 241.055C49.4981 241.239 49.4981 241.331 49.4981 241.515C49.4981 241.698 49.4981 241.79 49.4981 241.974ZM51.6981 241.331C51.6981 241.607 51.5981 241.79 51.3981 241.974C51.2981 242.158 51.1981 242.25 51.0981 242.342C50.9981 242.434 50.9981 242.434 50.9981 242.434C50.9981 242.434 50.9981 242.342 50.9981 242.25C50.9981 242.158 50.9981 241.974 50.9981 241.79C50.9981 241.698 50.9981 241.607 50.9981 241.515C50.9981 241.423 50.9981 241.331 50.9981 241.239C50.9981 241.147 50.9981 241.055 50.9981 240.963C50.9981 240.871 50.8981 240.78 50.8981 240.688C50.7981 240.504 50.6981 240.412 50.5981 240.228C50.4981 240.136 50.2981 239.953 50.0981 239.861C49.7981 239.677 49.4981 239.493 49.4981 239.493C49.4981 239.493 49.7981 239.401 50.1981 239.493C50.3981 239.493 50.6981 239.585 50.8981 239.769C50.9981 239.861 51.1982 239.953 51.2981 240.044C51.3981 240.136 51.4981 240.32 51.5981 240.412C51.6981 240.596 51.6981 240.688 51.6981 240.871C51.7981 241.055 51.7981 241.147 51.6981 241.331ZM53.9981 240.688C53.9981 240.963 53.8981 241.147 53.6981 241.331C53.5981 241.515 53.4981 241.607 53.3981 241.698C53.2981 241.79 53.2981 241.79 53.2981 241.79C53.2981 241.79 53.2981 241.698 53.2981 241.607C53.2981 241.515 53.2981 241.331 53.2981 241.147C53.2981 241.055 53.2981 240.963 53.2981 240.871C53.2981 240.78 53.2981 240.688 53.2981 240.596C53.2981 240.504 53.2981 240.412 53.2981 240.32C53.2981 240.228 53.1981 240.136 53.1981 240.044C53.0981 239.861 52.9981 239.769 52.8981 239.585C52.7981 239.493 52.5981 239.309 52.3981 239.217C52.0981 239.034 51.7981 238.85 51.7981 238.85C51.7981 238.85 52.0981 238.758 52.4981 238.85C52.6981 238.85 52.9981 238.942 53.1981 239.126C53.2981 239.217 53.4981 239.309 53.5981 239.401C53.6981 239.493 53.7981 239.677 53.8981 239.769C53.9981 239.953 53.9981 240.044 53.9981 240.228C53.9981 240.412 53.9981 240.596 53.9981 240.688ZM56.1981 240.136C56.1981 240.412 56.0981 240.596 55.8981 240.78C55.7981 240.963 55.6981 241.055 55.5981 241.147C55.4981 241.239 55.4981 241.239 55.4981 241.239C55.4981 241.239 55.4981 241.147 55.4981 241.055C55.4981 240.963 55.4981 240.78 55.4981 240.596C55.4981 240.504 55.4981 240.412 55.4981 240.32C55.4981 240.228 55.4981 240.136 55.4981 240.044C55.4981 239.953 55.4981 239.861 55.4981 239.769C55.4981 239.677 55.3981 239.585 55.3981 239.493C55.2981 239.309 55.1981 239.217 55.0981 239.034C54.9981 238.942 54.7981 238.758 54.5981 238.666C54.2981 238.482 53.9981 238.299 53.9981 238.299C53.9981 238.299 54.2981 238.207 54.6981 238.299C54.8981 238.299 55.1981 238.39 55.3981 238.574C55.4981 238.666 55.6982 238.758 55.7981 238.85C55.8981 238.942 55.9981 239.126 56.0981 239.217C56.1981 239.401 56.1981 239.493 56.1981 239.677C56.1981 239.861 56.1981 239.953 56.1981 240.136ZM58.3981 239.493C58.3981 239.769 58.2981 239.953 58.0981 240.136C57.9981 240.32 57.8981 240.412 57.7981 240.504C57.6982 240.596 57.6981 240.596 57.6981 240.596C57.6981 240.596 57.6981 240.504 57.6981 240.412C57.6981 240.32 57.6981 240.136 57.6981 239.953C57.6981 239.861 57.6981 239.769 57.6981 239.677C57.6981 239.585 57.6981 239.493 57.6981 239.401C57.6981 239.309 57.6981 239.217 57.6981 239.126C57.6981 239.034 57.5981 238.942 57.5981 238.85C57.4981 238.666 57.3981 238.574 57.2981 238.39C57.1982 238.299 56.9981 238.115 56.7981 238.023C56.4981 237.839 56.1981 237.655 56.1981 237.655C56.1981 237.655 56.4981 237.563 56.8981 237.655C57.0981 237.655 57.3981 237.747 57.5981 237.931C57.6981 238.023 57.8981 238.115 57.9981 238.207C58.0981 238.299 58.1982 238.482 58.2981 238.574C58.3981 238.758 58.3981 238.85 58.3981 239.034C58.3981 239.217 58.3981 239.401 58.3981 239.493ZM60.5981 238.85C60.5981 239.126 60.4981 239.309 60.2981 239.493C60.1982 239.677 60.0981 239.769 59.9981 239.861C59.8981 239.953 59.8981 239.953 59.8981 239.953C59.8981 239.953 59.8981 239.861 59.8981 239.769C59.8981 239.677 59.8981 239.493 59.8981 239.309C59.8981 239.217 59.8981 239.126 59.8981 239.034C59.8981 238.942 59.8981 238.85 59.8981 238.758C59.8981 238.666 59.8981 238.574 59.8981 238.482C59.8981 238.39 59.7981 238.299 59.7981 238.207C59.6982 238.023 59.5981 237.931 59.4981 237.747C59.3981 237.655 59.1981 237.472 58.9981 237.38C58.6981 237.196 58.3981 237.012 58.3981 237.012C58.3981 237.012 58.6981 236.92 59.0981 237.012C59.2981 237.012 59.5981 237.104 59.7981 237.288C59.8981 237.38 60.0981 237.472 60.1981 237.563C60.2981 237.655 60.3981 237.839 60.4981 237.931C60.5981 238.115 60.5981 238.207 60.5981 238.39C60.5981 238.574 60.5981 238.758 60.5981 238.85ZM62.7981 238.299C62.7981 238.574 62.6981 238.758 62.4981 238.942C62.3981 239.126 62.2981 239.217 62.1981 239.309C62.0981 239.401 62.0981 239.401 62.0981 239.401C62.0981 239.401 62.0981 239.309 62.0981 239.217C62.0981 239.126 62.0981 238.942 62.0981 238.758C62.0981 238.666 62.0981 238.574 62.0981 238.482C62.0981 238.39 62.0981 238.299 62.0981 238.207C62.0981 238.115 62.0981 238.023 62.0981 237.931C62.0981 237.839 61.9981 237.747 61.9981 237.655C61.8981 237.472 61.7981 237.38 61.6981 237.196C61.5981 237.104 61.3981 236.92 61.1981 236.828C60.8981 236.645 60.5981 236.461 60.5981 236.461C60.5981 236.461 60.8981 236.369 61.2981 236.461C61.4981 236.461 61.7981 236.553 61.9981 236.736C62.0981 236.828 62.2981 236.92 62.3981 237.012C62.4981 237.104 62.5981 237.288 62.6981 237.38C62.7981 237.563 62.7981 237.655 62.7981 237.839C62.7981 238.023 62.7981 238.115 62.7981 238.299ZM64.9981 237.655C64.9981 237.931 64.8981 238.115 64.6981 238.299C64.5981 238.482 64.4981 238.574 64.3981 238.666C64.2981 238.758 64.2981 238.758 64.2981 238.758C64.2981 238.758 64.2981 238.666 64.2981 238.574C64.2981 238.482 64.2981 238.299 64.2981 238.115C64.2981 238.023 64.2981 237.931 64.2981 237.839C64.2981 237.747 64.2981 237.655 64.2981 237.563C64.2981 237.472 64.2981 237.38 64.2981 237.288C64.2981 237.196 64.1981 237.104 64.1981 237.012C64.0981 236.828 63.9981 236.736 63.8981 236.553C63.7981 236.461 63.5981 236.277 63.3981 236.185C63.0981 236.001 62.7981 235.818 62.7981 235.818C62.7981 235.818 63.0981 235.726 63.4981 235.818C63.6981 235.818 63.9981 235.909 64.1981 236.093C64.2981 236.185 64.4981 236.277 64.5981 236.369C64.6981 236.461 64.7981 236.645 64.8981 236.736C64.9981 236.92 64.9981 237.012 64.9981 237.196C64.9981 237.38 64.9981 237.472 64.9981 237.655ZM67.1981 236.92C67.1981 237.196 67.0981 237.38 66.8981 237.563C66.7981 237.747 66.6981 237.839 66.5981 237.931C66.4981 238.023 66.4981 238.023 66.4981 238.023C66.4981 238.023 66.4981 237.931 66.4981 237.839C66.4981 237.747 66.4981 237.563 66.4981 237.38C66.4981 237.288 66.4981 237.196 66.4981 237.104C66.4981 237.012 66.4981 236.92 66.4981 236.828C66.4981 236.736 66.4981 236.645 66.4981 236.553C66.4981 236.461 66.3981 236.369 66.3981 236.277C66.2981 236.093 66.1981 236.001 66.0981 235.818C65.9981 235.726 65.7981 235.542 65.5981 235.45C65.2981 235.266 64.9981 235.082 64.9981 235.082C64.9981 235.082 65.2981 234.991 65.6981 235.082C65.8981 235.082 66.1981 235.174 66.3981 235.358C66.4981 235.45 66.6982 235.542 66.7981 235.634C66.8981 235.726 66.9981 235.91 67.0981 236.001C67.1981 236.185 67.1981 236.277 67.1981 236.461C67.2981 236.645 67.2981 236.828 67.1981 236.92ZM69.3981 236.369C69.3981 236.645 69.2981 236.828 69.0981 237.012C68.9981 237.196 68.8981 237.288 68.7981 237.38C68.6982 237.472 68.6981 237.472 68.6981 237.472C68.6981 237.472 68.6981 237.38 68.6981 237.288C68.6981 237.196 68.6981 237.012 68.6981 236.828C68.6981 236.736 68.6981 236.645 68.6981 236.553C68.6981 236.461 68.6981 236.369 68.6981 236.277C68.6981 236.185 68.6981 236.093 68.6981 236.001C68.6981 235.91 68.5981 235.818 68.5981 235.726C68.4981 235.542 68.3981 235.45 68.2981 235.266C68.1982 235.174 67.9981 234.991 67.7981 234.899C67.4981 234.715 67.1981 234.531 67.1981 234.531C67.1981 234.531 67.4981 234.439 67.8981 234.531C68.0981 234.531 68.3981 234.623 68.5981 234.807C68.6981 234.899 68.8981 234.991 68.9981 235.082C69.0981 235.174 69.1982 235.358 69.2981 235.45C69.3981 235.634 69.3981 235.726 69.3981 235.909C69.4981 236.093 69.4981 236.277 69.3981 236.369ZM71.6981 235.634C71.6981 235.909 71.5981 236.093 71.3981 236.277C71.2981 236.461 71.1981 236.553 71.0981 236.645C70.9981 236.736 70.9981 236.736 70.9981 236.736C70.9981 236.736 70.9981 236.645 70.9981 236.553C70.9981 236.461 70.9981 236.277 70.9981 236.093C70.9981 236.001 70.9981 235.909 70.9981 235.818C70.9981 235.726 70.9981 235.634 70.9981 235.542C70.9981 235.45 70.9981 235.358 70.9981 235.266C70.9981 235.174 70.8981 235.082 70.8981 234.991C70.7981 234.807 70.6981 234.715 70.5981 234.531C70.4981 234.439 70.2981 234.255 70.0981 234.164C69.7981 233.98 69.4981 233.796 69.4981 233.796C69.4981 233.796 69.7981 233.704 70.1981 233.796C70.3981 233.796 70.6981 233.888 70.8981 234.072C70.9981 234.164 71.1982 234.255 71.2981 234.347C71.3981 234.439 71.4981 234.623 71.5981 234.715C71.6981 234.899 71.6981 234.991 71.6981 235.174C71.6981 235.358 71.6981 235.542 71.6981 235.634ZM73.8981 234.991C73.8981 235.266 73.7981 235.45 73.5981 235.634C73.4981 235.818 73.3981 235.91 73.2981 236.001C73.1982 236.093 73.1981 236.093 73.1981 236.093C73.1981 236.093 73.1981 236.001 73.1981 235.909C73.1981 235.818 73.1981 235.634 73.1981 235.45C73.1981 235.358 73.1981 235.266 73.1981 235.174C73.1981 235.082 73.1981 234.991 73.1981 234.899C73.1981 234.807 73.1981 234.715 73.1981 234.623C73.1981 234.531 73.0981 234.439 73.0981 234.347C72.9981 234.164 72.8981 234.072 72.7981 233.888C72.6982 233.796 72.4981 233.612 72.2981 233.52C71.9981 233.337 71.6981 233.153 71.6981 233.153C71.6981 233.153 71.9981 233.061 72.3981 233.153C72.5981 233.153 72.8981 233.245 73.0981 233.428C73.1981 233.52 73.3981 233.612 73.4981 233.704C73.5981 233.796 73.6982 233.98 73.7981 234.072C73.8981 234.255 73.8981 234.347 73.8981 234.531C73.8981 234.715 73.8981 234.807 73.8981 234.991ZM76.0981 234.255C76.0981 234.531 75.9981 234.715 75.7981 234.899C75.6982 235.082 75.5981 235.174 75.4981 235.266C75.3981 235.358 75.3981 235.358 75.3981 235.358C75.3981 235.358 75.3981 235.266 75.3981 235.174C75.3981 235.082 75.3981 234.899 75.3981 234.715C75.3981 234.623 75.3981 234.531 75.3981 234.439C75.3981 234.347 75.3981 234.255 75.3981 234.164C75.3981 234.072 75.3981 233.98 75.3981 233.888C75.3981 233.796 75.2981 233.704 75.2981 233.612C75.1982 233.428 75.0981 233.337 74.9981 233.153C74.8981 233.061 74.6981 232.877 74.4981 232.785C74.1981 232.601 73.8981 232.418 73.8981 232.418C73.8981 232.418 74.1981 232.326 74.5981 232.418C74.7981 232.418 75.0982 232.51 75.2981 232.693C75.3981 232.785 75.5981 232.877 75.6981 232.969C75.7981 233.061 75.8981 233.245 75.9981 233.337C76.0981 233.52 76.0981 233.612 76.0981 233.796C76.0981 233.98 76.0981 234.164 76.0981 234.255ZM78.2981 233.612C78.2981 233.888 78.1981 234.072 77.9981 234.255C77.8981 234.439 77.7981 234.531 77.6981 234.623C77.5981 234.715 77.5981 234.715 77.5981 234.715C77.5981 234.715 77.5981 234.623 77.5981 234.531C77.5981 234.439 77.5981 234.255 77.5981 234.072C77.5981 233.98 77.5981 233.888 77.5981 233.796C77.5981 233.704 77.5981 233.612 77.5981 233.52C77.5981 233.428 77.5981 233.337 77.5981 233.245C77.5981 233.153 77.4981 233.061 77.4981 232.969C77.3981 232.785 77.2981 232.693 77.1981 232.51C77.0981 232.418 76.8981 232.234 76.6981 232.142C76.3981 231.958 76.0981 231.774 76.0981 231.774C76.0981 231.774 76.3981 231.683 76.7981 231.774C76.9981 231.774 77.2981 231.866 77.4981 232.05C77.5981 232.142 77.7981 232.234 77.8981 232.326C77.9981 232.418 78.0981 232.601 78.1981 232.693C78.2981 232.877 78.2981 232.969 78.2981 233.153C78.2981 233.337 78.2981 233.428 78.2981 233.612Z" fill="url(#paint0_linear_309_15688)"/>
<path d="M55.9982 86.7739C56.3982 86.682 56.6982 86.5901 56.9982 86.4063C57.4982 86.2225 57.8982 86.0388 57.8982 86.0388C57.8982 86.0388 57.5982 85.9469 56.9982 85.9469C56.6982 85.9469 56.3982 85.855 55.8982 85.855C55.6982 85.855 55.4982 85.855 55.1982 85.855C54.9982 85.855 54.6982 85.855 54.4982 85.855C53.9982 85.855 53.4982 85.9469 52.8982 85.9469C52.2982 86.0388 51.6982 86.1307 51.0982 86.2226C50.4982 86.3144 49.8982 86.4982 49.1982 86.7739C48.5982 86.9576 47.8982 87.2333 47.2982 87.509C46.6982 87.7847 46.0982 88.1522 45.4982 88.4279C45.1982 88.6117 44.9982 88.7954 44.6982 88.9792C44.3982 89.163 44.1982 89.3468 43.8982 89.5305C43.3982 89.99 42.9982 90.3576 42.5982 90.817C42.1982 91.1846 41.8982 91.644 41.6982 92.1034C41.1982 92.9304 40.8982 93.6655 40.7982 94.2169C40.6982 94.7682 40.6982 95.0439 40.6982 95.0439C40.6982 95.0439 40.8982 94.7682 41.2982 94.4007C41.4982 94.2169 41.6982 93.9412 41.9982 93.7574C42.2982 93.4818 42.5982 93.2061 42.8982 92.9304C43.2982 92.6548 43.5982 92.3791 44.0982 92.0115C44.4982 91.7359 44.9982 91.4602 45.3982 91.0927C45.8982 90.817 46.3982 90.5413 46.8982 90.2657C47.3982 89.99 47.8982 89.7143 48.4982 89.4387C49.0982 89.163 49.5982 88.8873 50.1982 88.7035C50.7982 88.5198 51.2982 88.2441 51.7982 88.0603C52.2982 87.8766 52.8982 87.6928 53.3982 87.509C53.8982 87.3252 54.3982 87.2333 54.8982 87.0496C55.1982 86.9577 55.5982 86.8658 55.9982 86.7739Z" fill="url(#paint1_linear_309_15688)"/>
<path d="M49.7984 44.6888C49.9984 44.4131 50.2983 44.1374 50.5983 43.8618C50.8983 43.5861 51.1983 43.3104 51.4983 43.1267C51.7983 42.851 52.0983 42.6672 52.3983 42.4834C52.6983 42.2997 52.9983 42.1159 53.3983 41.9321C53.6983 41.7483 53.9984 41.6564 54.2984 41.5646C54.5984 41.4727 54.8983 41.3808 55.0983 41.2889C55.2983 41.197 55.5984 41.1051 55.7984 41.1051C56.1983 41.0132 56.3983 40.9213 56.3983 40.9213C56.3983 40.9213 56.1983 40.8294 55.7984 40.8294C55.5984 40.8294 55.3983 40.7375 55.0983 40.7375C54.7983 40.7375 54.4983 40.7375 54.0983 40.7375C53.8983 40.7375 53.6983 40.7376 53.5983 40.8294C53.3983 40.8294 53.1983 40.9213 52.9983 40.9213C52.5983 41.0132 52.1984 41.197 51.7984 41.2889C51.3984 41.4727 50.9983 41.6564 50.5983 41.9321C50.1983 42.2078 49.8983 42.4834 49.4983 42.7591C49.1983 43.1267 48.7983 43.4023 48.5983 43.7699C48.2983 44.1374 48.0983 44.505 47.8983 44.8725C47.6983 45.2401 47.5983 45.6077 47.4983 45.9752C47.4983 46.159 47.3983 46.3428 47.3983 46.5266C47.3983 46.7103 47.3984 46.8941 47.2984 46.986C47.1984 47.2617 47.2984 47.6292 47.2984 47.9049C47.2984 48.1806 47.2983 48.3643 47.3983 48.5481C47.4983 48.9157 47.4983 49.0994 47.4983 49.0994C47.4983 49.0994 47.5983 48.9157 47.6983 48.5481C47.6983 48.3643 47.7983 48.1806 47.8983 47.9049C47.9983 47.7211 48.0983 47.4454 48.1983 47.1698C48.2983 46.8941 48.4983 46.6184 48.5983 46.3428C48.6983 46.0671 48.9983 45.7914 49.1983 45.4239C49.2983 45.2401 49.4984 44.9644 49.7984 44.6888Z" fill="url(#paint2_linear_309_15688)"/>
<path d="M47.7982 4.25761C48.6982 4.34949 49.5982 4.3495 50.4982 4.3495C51.3982 4.3495 52.3982 4.34949 53.1982 4.25761C54.0982 4.16572 54.8981 4.16572 55.5981 4.07383C56.9981 3.89005 57.8981 3.61439 57.8981 3.61439C57.8981 3.61439 56.9981 3.33872 55.5981 3.15494C54.8981 3.06305 54.0982 2.97117 53.1982 2.97117C52.2982 2.87928 51.3982 2.87927 50.4982 2.87927C49.5982 2.87927 48.5982 2.87928 47.7982 2.97117C46.8982 3.06306 46.0981 3.06305 45.3981 3.15494C43.9981 3.33872 43.0981 3.61439 43.0981 3.61439C43.0981 3.61439 43.9981 3.89005 45.3981 4.07383C46.0981 4.07383 46.8982 4.16572 47.7982 4.25761Z" fill="url(#paint3_linear_309_15688)"/>
<path d="M49.598 155.507C51.098 155.507 52.5981 155.415 53.798 155.231C54.8981 155.047 55.698 154.772 55.698 154.772C55.698 154.772 54.8981 154.496 53.798 154.312C52.698 154.128 51.198 154.036 49.598 154.036C48.098 154.036 46.598 154.128 45.398 154.312C44.298 154.496 43.498 154.772 43.498 154.772C43.498 154.772 44.298 155.047 45.398 155.231C46.598 155.415 48.098 155.507 49.598 155.507Z" fill="url(#paint4_linear_309_15688)"/>
<path d="M48.198 223.504C47.598 223.413 46.9981 223.321 46.298 223.229C45.598 223.137 44.898 223.045 44.198 222.953C42.698 222.769 41.098 222.586 39.598 222.402C37.998 222.218 36.398 222.034 34.998 221.85C33.498 221.667 32.098 221.483 30.998 221.299C29.798 221.115 28.798 221.023 28.098 220.932C27.398 220.84 26.998 220.748 26.998 220.748C26.998 220.748 27.398 220.932 27.998 221.207C28.698 221.483 29.598 221.85 30.798 222.126C31.398 222.31 31.998 222.494 32.698 222.586C33.398 222.769 34.0981 222.953 34.798 223.045C35.498 223.137 36.298 223.321 37.098 223.413C37.898 223.504 38.698 223.688 39.498 223.78C41.098 223.964 42.698 224.148 44.198 224.24C45.698 224.331 47.098 224.331 48.298 224.331C49.4981 224.331 50.498 224.24 51.198 224.24C51.898 224.24 52.298 224.148 52.298 224.148C52.298 224.148 51.898 224.056 51.198 223.964C50.398 223.872 49.398 223.688 48.198 223.504Z" fill="url(#paint5_linear_309_15688)"/>
<path d="M57.3978 189.965C57.6978 191.803 58.0978 193.549 58.6978 195.295C59.2978 197.04 59.8978 198.694 60.5978 200.257C61.2978 201.819 61.9978 203.289 62.5978 204.667C63.1978 206.046 63.7979 207.332 64.2979 208.618C64.7979 209.813 65.1978 211.008 65.4978 212.018C65.7978 213.029 65.9978 213.948 66.1978 214.683C66.4978 216.245 66.6978 217.072 66.6978 217.072C66.6978 217.072 66.6979 216.888 66.7979 216.429C66.8979 215.97 66.8978 215.418 66.9978 214.591C66.9978 213.764 66.9978 212.845 66.8978 211.743C66.7978 210.64 66.5978 209.354 66.1978 208.067C65.7978 206.689 65.2979 205.31 64.7979 203.84C64.1979 202.37 63.4978 200.9 62.8978 199.338C61.4978 196.305 60.1978 192.997 59.3978 189.597C58.9978 187.943 58.7978 186.198 58.6978 184.452C58.5978 183.625 58.5978 182.706 58.5978 181.879C58.5978 181.052 58.4978 180.133 58.4978 179.306C58.2978 175.998 58.1978 172.874 58.0978 170.209C57.8978 164.879 57.6978 161.296 57.6978 161.296C57.6978 161.296 57.4979 164.879 57.2979 170.209C57.1979 172.874 56.9978 175.998 56.8978 179.306C56.8978 180.133 56.7979 180.96 56.7979 181.879C56.7979 182.798 56.7979 183.625 56.7979 184.544C56.8979 186.381 57.0978 188.219 57.3978 189.965Z" fill="url(#paint6_linear_309_15688)"/>
<path d="M73.598 123.897C73.598 123.897 74.998 123.897 75.898 123.07C76.798 122.243 77.198 121.6 76.598 120.313C75.998 119.027 75.098 118.292 74.098 119.67C73.098 121.048 71.498 120.957 71.498 121.508C71.598 122.151 73.598 123.897 73.598 123.897Z" fill="url(#paint7_linear_309_15688)"/>
<path d="M33.1983 244.271C32.7983 244.363 32.5983 244.915 32.6983 245.558C32.7983 246.201 33.2983 246.661 33.6983 246.569C34.0983 246.477 34.2983 245.925 34.1983 245.282C33.9983 244.731 33.5983 244.271 33.1983 244.271Z" fill="url(#paint8_linear_309_15688)"/>
<defs>
<linearGradient id="paint0_linear_309_15688" x1="52.7782" y1="0.214478" x2="52.7782" y2="248.039" gradientUnits="userSpaceOnUse">
<stop stop-color="#404559"/>
<stop offset="1" stop-color="#2E313A" stop-opacity="0"/>
</linearGradient>
<linearGradient id="paint1_linear_309_15688" x1="49.2982" y1="85.855" x2="49.2982" y2="95.0439" gradientUnits="userSpaceOnUse">
<stop stop-color="#404559"/>
<stop offset="1" stop-color="#2E313A" stop-opacity="0"/>
</linearGradient>
<linearGradient id="paint2_linear_309_15688" x1="51.8261" y1="40.7375" x2="51.8261" y2="49.0994" gradientUnits="userSpaceOnUse">
<stop stop-color="#404559"/>
<stop offset="1" stop-color="#2E313A" stop-opacity="0"/>
</linearGradient>
<linearGradient id="paint3_linear_309_15688" x1="50.4981" y1="2.87927" x2="50.4981" y2="4.3495" gradientUnits="userSpaceOnUse">
<stop stop-color="#404559"/>
<stop offset="1" stop-color="#2E313A" stop-opacity="0"/>
</linearGradient>
<linearGradient id="paint4_linear_309_15688" x1="49.598" y1="154.036" x2="49.598" y2="155.507" gradientUnits="userSpaceOnUse">
<stop stop-color="#404559"/>
<stop offset="1" stop-color="#2E313A" stop-opacity="0"/>
</linearGradient>
<linearGradient id="paint5_linear_309_15688" x1="39.648" y1="220.748" x2="39.648" y2="224.331" gradientUnits="userSpaceOnUse">
<stop stop-color="#404559"/>
<stop offset="1" stop-color="#2E313A" stop-opacity="0"/>
</linearGradient>
<linearGradient id="paint6_linear_309_15688" x1="61.8979" y1="161.296" x2="61.8979" y2="217.072" gradientUnits="userSpaceOnUse">
<stop stop-color="#404559"/>
<stop offset="1" stop-color="#2E313A" stop-opacity="0"/>
</linearGradient>
<linearGradient id="paint7_linear_309_15688" x1="74.1907" y1="118.929" x2="74.1907" y2="123.897" gradientUnits="userSpaceOnUse">
<stop stop-color="#404559"/>
<stop offset="1" stop-color="#2E313A" stop-opacity="0"/>
</linearGradient>
<linearGradient id="paint8_linear_309_15688" x1="33.4483" y1="244.271" x2="33.4483" y2="246.58" gradientUnits="userSpaceOnUse">
<stop stop-color="#404559"/>
<stop offset="1" stop-color="#2E313A" stop-opacity="0"/>
</linearGradient>
</defs>
</svg>
