
<svg width="25" height="25" viewBox="0 0 25 25" fill="none" xmlns="http://www.w3.org/2000/svg">
<path d="M12.5002 8.16656C10.107 8.16656 8.16691 10.1067 8.16691 12.4999C8.16691 14.8931 10.107 16.8332 12.5002 16.8332C14.8935 16.8332 16.8336 14.8931 16.8336 12.4999C16.8336 10.1067 14.8935 8.16656 12.5002 8.16656Z" fill="white"/>
<path fill-rule="evenodd" clip-rule="evenodd" d="M5.52629 0.608523C10.1238 0.0946851 14.8767 0.0946851 19.4742 0.608523C22.0054 0.891421 24.047 2.88579 24.3441 5.42586C24.8938 10.1259 24.8938 14.8739 24.3441 19.5739C24.047 22.114 22.0054 24.1084 19.4742 24.3913C14.8767 24.9051 10.1238 24.9051 5.5263 24.3913C2.9951 24.1084 0.953506 22.114 0.656422 19.5739C0.106714 14.8739 0.106714 10.1259 0.656422 5.42586C0.953506 2.88579 2.9951 0.891421 5.52629 0.608523ZM19.1669 4.4999C18.4305 4.4999 17.8336 5.09685 17.8336 5.83323C17.8336 6.56961 18.4305 7.16656 19.1669 7.16656C19.9033 7.16656 20.5002 6.56961 20.5002 5.83323C20.5002 5.09685 19.9033 4.4999 19.1669 4.4999ZM6.16691 12.4999C6.16691 9.0021 9.00244 6.16656 12.5002 6.16656C15.998 6.16656 18.8336 9.0021 18.8336 12.4999C18.8336 15.9977 15.998 18.8332 12.5002 18.8332C9.00244 18.8332 6.16691 15.9977 6.16691 12.4999Z" fill="white"/>
</svg>
