<svg width="18" height="21" viewBox="0 0 18 21" fill="none" xmlns="http://www.w3.org/2000/svg">
<path d="M5.75 8.5C5.75 6.70507 7.20507 5.25 9 5.25C10.7949 5.25 12.25 6.70507 12.25 8.5C12.25 10.2949 10.7949 11.75 9 11.75C7.20507 11.75 5.75 10.2949 5.75 8.5Z" fill="white"/>
<path fill-rule="evenodd" clip-rule="evenodd" d="M0.773543 7.37739C1.11718 3.20845 4.60097 0 8.78406 0H9.21599C13.3991 0 16.8829 3.20845 17.2265 7.37739C17.4115 9.62199 16.7182 11.8508 15.2925 13.5943L10.4995 19.4561C9.72449 20.4039 8.27556 20.4039 7.50059 19.4561L2.70752 13.5943C1.28187 11.8508 0.588525 9.62199 0.773543 7.37739ZM9 3.75C6.37665 3.75 4.25 5.87665 4.25 8.5C4.25 11.1234 6.37665 13.25 9 13.25C11.6234 13.25 13.75 11.1234 13.75 8.5C13.75 5.87665 11.6234 3.75 9 3.75Z" fill="white"/>
</svg>
