<svg width="17" height="18" viewBox="0 0 17 18" fill="none" xmlns="http://www.w3.org/2000/svg">
<path d="M1.00004 7.36029C2.91644 11.5342 6.32645 14.8527 10.566 16.6517L11.2456 16.9545C12.8004 17.6472 14.6282 17.1209 15.5765 15.7074L16.4646 14.3837C16.7533 13.9533 16.6654 13.3737 16.262 13.0483L13.2502 10.6185C12.8078 10.2616 12.1573 10.3447 11.8189 10.8014L10.8871 12.0586C8.49634 10.8793 6.55529 8.93825 5.37595 6.54744L6.6332 5.61572C7.08986 5.27729 7.17298 4.62678 6.81609 4.1844L4.38623 1.17245C4.06088 0.769172 3.48138 0.681205 3.05101 0.969774L1.71817 1.86347C0.295825 2.81718 -0.227556 4.66003 0.481176 6.21898L0.999264 7.35859L1.00004 7.36029Z" fill="white"/>
</svg>
