<svg width="33" height="32" viewBox="0 0 33 32" fill="none" xmlns="http://www.w3.org/2000/svg">
<path fill-rule="evenodd" clip-rule="evenodd" d="M25.1441 26.3868L25.145 26.3845L25.1682 26.3265L29.1666 6.16774V6.10226C29.1666 5.59999 28.981 5.16151 28.5772 4.8985C28.2237 4.66828 27.8174 4.65189 27.5324 4.67352C27.2311 4.69639 26.9469 4.77161 26.7502 4.83422C26.649 4.86644 26.5643 4.89747 26.5037 4.92095C26.4733 4.93273 26.4487 4.94273 26.4308 4.95018L26.4132 4.95759L4.12006 13.7028L4.11393 13.705C4.10189 13.7094 4.08597 13.7154 4.06674 13.7228C4.0284 13.7378 3.97621 13.7591 3.9149 13.7869C3.79453 13.8415 3.62821 13.9257 3.45954 14.0412C3.17307 14.2373 2.62759 14.7018 2.7197 15.4381C2.79599 16.0479 3.2164 16.4353 3.49982 16.6358C3.65175 16.7433 3.7971 16.8208 3.90354 16.8715C3.95747 16.8972 4.00328 16.9168 4.0374 16.9307C4.0545 16.9377 4.0688 16.9433 4.07987 16.9475L4.09404 16.9528L4.10309 16.9561L8.00341 18.2692C7.99025 18.5139 8.01452 18.7634 8.07942 19.0096L10.0331 26.4208C10.2648 27.2996 11.0597 27.9117 11.9685 27.911C12.7831 27.9104 13.5055 27.4176 13.8124 26.6824L16.8627 23.421L22.1013 27.4373L22.1758 27.4698C22.6518 27.6775 23.0964 27.7433 23.503 27.6877C23.909 27.6323 24.2316 27.462 24.474 27.2681C24.7124 27.0773 24.8759 26.862 24.9787 26.6999C25.0309 26.6175 25.0698 26.5451 25.0968 26.4906C25.1104 26.4633 25.1211 26.4401 25.1291 26.4221L25.1391 26.3989L25.1427 26.3903L25.1441 26.3868ZM10.0133 18.4998C9.96888 18.3313 10.0386 18.1535 10.1856 18.0601L23.415 9.65893C23.415 9.65893 24.1931 9.18653 24.1653 9.65893C24.1653 9.65893 24.3042 9.74235 23.8872 10.1313C23.4917 10.5008 14.4583 19.2222 13.5443 20.1047C13.4915 20.1556 13.46 20.2141 13.4414 20.285L11.967 25.911L10.0133 18.4998Z" fill="white"/>
</svg>
