<svg width="32" height="32" viewBox="0 0 32 32" fill="none" xmlns="http://www.w3.org/2000/svg">
<path d="M12.8 26.4C12.8 27.0365 12.5471 27.647 12.0971 28.0971C11.647 28.5471 11.0365 28.8 10.4 28.8C9.76348 28.8 9.15303 28.5471 8.70294 28.0971C8.25286 27.647 8 27.0365 8 26.4C8 25.7635 8.25286 25.153 8.70294 24.7029C9.15303 24.2529 9.76348 24 10.4 24C11.0365 24 11.647 24.2529 12.0971 24.7029C12.5471 25.153 12.8 25.7635 12.8 26.4ZM24 26.4C24 27.0365 23.7471 27.647 23.2971 28.0971C22.847 28.5471 22.2365 28.8 21.6 28.8C20.9635 28.8 20.353 28.5471 19.9029 28.0971C19.4529 27.647 19.2 27.0365 19.2 26.4C19.2 25.7635 19.4529 25.153 19.9029 24.7029C20.353 24.2529 20.9635 24 21.6 24C22.2365 24 22.847 24.2529 23.2971 24.7029C23.7471 25.153 24 25.7635 24 26.4Z" fill="white"/>
<path d="M4.79995 6.40002C4.3756 6.40002 3.96864 6.5686 3.66858 6.86865C3.36852 7.16871 3.19995 7.57568 3.19995 8.00002V24C3.19995 24.4244 3.36852 24.8313 3.66858 25.1314C3.96864 25.4315 4.3756 25.6 4.79995 25.6H6.47995C6.66356 24.6958 7.15413 23.8828 7.86854 23.2989C8.58295 22.715 9.47727 22.396 10.4 22.396C11.3226 22.396 12.2169 22.715 12.9314 23.2989C13.6458 23.8828 14.1363 24.6958 14.32 25.6H16C16.4243 25.6 16.8313 25.4315 17.1313 25.1314C17.4314 24.8313 17.6 24.4244 17.6 24V8.00002C17.6 7.57568 17.4314 7.16871 17.1313 6.86865C16.8313 6.5686 16.4243 6.40002 16 6.40002H4.79995ZM22.4 11.2C21.9756 11.2 21.5686 11.3686 21.2686 11.6687C20.9685 11.9687 20.7999 12.3757 20.7999 12.8V22.48C21.3147 22.3749 21.8452 22.3721 22.361 22.472C22.8769 22.5719 23.368 22.7725 23.8063 23.0622C24.2446 23.3519 24.6216 23.7252 24.9156 24.1606C25.2096 24.5961 25.415 25.0852 25.5199 25.6H27.1999C27.6243 25.6 28.0313 25.4315 28.3313 25.1314C28.6314 24.8313 28.7999 24.4244 28.7999 24V16C28.7999 15.5757 28.6312 15.1688 28.3312 14.8688L25.1311 11.6688C24.8312 11.3687 24.4243 11.2001 24 11.2H22.4Z" fill="white"/>
</svg>
