<svg width="29" height="18" viewBox="0 0 29 18" fill="none" xmlns="http://www.w3.org/2000/svg">
<path d="M27.1713 17.008H24.1293C22.9783 17.008 22.6322 16.076 20.5681 14.0118C18.7667 12.275 18.0056 12.0582 17.549 12.0582C16.9193 12.0582 16.7463 12.2312 16.7463 13.1007V15.8362C16.7463 16.5764 16.5065 17.01 14.5737 17.01C12.6979 16.884 10.879 16.3141 9.26657 15.3473C7.65419 14.3805 6.29456 13.0445 5.29966 11.4494C2.93771 8.5095 1.29426 5.05912 0.5 1.37256C0.5 0.915951 0.673055 0.503122 1.5425 0.503122H4.58242C5.3643 0.503122 5.64577 0.851316 5.95227 1.65404C7.42844 5.99917 9.94712 9.77719 10.9688 9.77719C11.3607 9.77719 11.5317 9.60413 11.5317 8.62627V4.15187C11.4024 2.11065 10.3182 1.9376 10.3182 1.19951C10.3322 1.00483 10.4214 0.823235 10.567 0.693229C10.7125 0.563224 10.903 0.495034 11.098 0.503122H15.8768C16.5295 0.503122 16.7463 0.828381 16.7463 1.61025V7.6484C16.7463 8.30101 17.0278 8.51785 17.2238 8.51785C17.6157 8.51785 17.9181 8.30101 18.6353 7.58377C20.1758 5.70508 21.4345 3.61201 22.3716 1.37048C22.4674 1.10123 22.6487 0.870715 22.8877 0.714108C23.1268 0.557501 23.4105 0.483403 23.6956 0.503122H26.7376C27.6487 0.503122 27.8426 0.959736 27.6487 1.61025C26.5426 4.08813 25.174 6.44024 23.5663 8.62627C23.239 9.12667 23.1076 9.38729 23.5663 9.97318C23.8686 10.4298 24.9341 11.3201 25.6513 12.1666C26.6936 13.2063 27.5592 14.4091 28.2138 15.7278C28.4744 16.5743 28.0386 17.008 27.1713 17.008Z" fill="white"/>
</svg>
