<svg width="18" height="17" viewBox="0 0 18 17" fill="none" xmlns="http://www.w3.org/2000/svg">
<path fill-rule="evenodd" clip-rule="evenodd" d="M0.5 8.50024C0.5 3.80582 4.30558 0.000244141 9 0.000244141C13.6944 0.000244141 17.5 3.80582 17.5 8.50024C17.5 13.1947 13.6944 17.0002 9 17.0002C4.30558 17.0002 0.5 13.1947 0.5 8.50024ZM9.75 3.50024C9.75 3.08603 9.41421 2.75024 9 2.75024C8.58579 2.75024 8.25 3.08603 8.25 3.50024V8.50024C8.25 8.75884 8.38321 8.99919 8.6025 9.13624L11.6025 11.0112C11.9538 11.2308 12.4165 11.124 12.636 10.7727C12.8555 10.4215 12.7488 9.95878 12.3975 9.73925L9.75 8.08456V3.50024Z" fill="white"/>
</svg>
